<svg width="102" height="96" viewBox="0 0 102 96" fill="none" xmlns="http://www.w3.org/2000/svg">
<path d="M67.5459 24.1235C66.8627 24.7401 66.8127 25.7984 67.4376 26.4817L70.9124 30.2981C71.4874 30.9314 72.279 31.3064 73.1373 31.3398C73.1789 31.3398 73.2206 31.3398 73.2623 31.3398C74.0789 31.3398 74.8538 31.0314 75.4455 30.4648L90.7696 15.899C90.7696 15.899 90.8029 15.8573 90.8196 15.8407L91.4695 15.224C92.1361 14.5907 92.1611 13.5325 91.5195 12.8659C90.8862 12.1992 89.828 12.1742 89.1613 12.8159L88.4614 13.4825C88.4614 13.4825 88.428 13.5241 88.4114 13.5491L73.2623 27.9483L69.8958 24.2485C69.2792 23.5652 68.2209 23.5152 67.5376 24.1402L67.5459 24.1235Z" fill="#E30000"/>
<path d="M79.1453 0.00833284C78.4703 0.00833284 77.7704 0.0416642 77.0621 0.108327C76.1455 0.191655 75.4705 1.00827 75.5622 1.92489C75.6455 2.8415 76.4455 3.51646 77.3787 3.4248C77.987 3.36647 78.5787 3.34147 79.1453 3.34147C89.528 3.34147 97.9775 11.791 97.9775 22.182C97.9775 30.3649 92.7612 37.5561 84.9866 40.0893C83.1117 40.7059 81.1535 41.0142 79.1453 41.0142C76.6121 41.0142 74.1623 40.5226 71.8541 39.556C68.7209 38.2394 65.9961 36.0895 63.9795 33.348C61.5797 30.0982 60.3214 26.2318 60.3214 22.182C60.3214 14.9741 64.3378 8.50783 70.7958 5.29969C71.6207 4.89138 71.9541 3.89144 71.5458 3.06648C71.1374 2.24153 70.1375 1.89989 69.3126 2.31653C61.713 6.09131 56.9883 13.7075 56.9883 22.1903C56.9883 25.8985 57.9049 29.4649 59.6298 32.6731H28.2567C26.2818 32.6731 24.6735 34.2813 24.6735 36.2478V61.888C23.8319 63.1963 22.8486 64.4295 21.7237 65.5878C21.0654 63.9462 19.4072 62.7796 17.4573 62.7796H12.4076C10.2411 62.7796 8.4245 64.2212 7.96619 66.1544H4.5664C2.04988 66.1544 0 68.2043 0 70.7208V73.6206C0 74.5372 0.749955 75.2872 1.66657 75.2872C2.58318 75.2872 3.33314 74.5372 3.33314 73.6206V70.7208C3.33314 70.0375 3.8831 69.4875 4.5664 69.4875H7.84953V89.803H4.5664C3.8831 89.803 3.33314 89.253 3.33314 88.5697V80.5369C3.33314 79.6203 2.58318 78.8703 1.66657 78.8703C0.749955 78.8703 0 79.6203 0 80.5369V88.5697C0 91.0863 2.04988 93.1361 4.5664 93.1361H8.15785C8.81614 94.7694 10.4744 95.9276 12.4159 95.9276H17.4656C19.4072 95.9276 21.0654 94.761 21.7237 93.1361H46.2723C46.4222 93.1361 46.5639 93.1278 46.7056 93.1111H83.5867C85.5616 93.1111 87.1698 91.5029 87.1698 89.5364V42.8225C95.6693 39.531 101.302 31.3898 101.302 22.1737C101.302 9.94941 91.3612 0 79.137 0L79.1453 0.00833284ZM54.2551 35.9979V45.539L50.1304 42.2142C49.7304 41.8892 49.2387 41.7309 48.7638 41.7309C48.2388 41.7309 47.7138 41.9225 47.2972 42.3058C46.2139 43.2891 45.139 44.2724 44.0557 45.2473V35.9979H54.2551ZM17.4656 92.5945H12.4159C11.7493 92.5945 11.1827 92.1279 11.1827 91.5779V67.121C11.1827 66.571 11.7493 66.1044 12.4159 66.1044H17.4656C18.1489 66.1044 18.6989 66.5627 18.6989 67.121V91.5779C18.6989 92.1279 18.1323 92.5945 17.4656 92.5945ZM22.032 69.3292C22.6653 69.1459 23.2486 68.8043 23.7319 68.3209C25.7485 66.3211 27.4067 64.0795 28.665 61.6713C29.2566 60.5381 29.6816 59.5131 30.0565 58.6132C30.3565 57.8966 30.7565 56.9383 31.0232 56.58C31.3898 56.78 32.0398 57.4883 32.3897 58.2799C33.298 60.3298 31.9481 63.1546 30.6565 65.1711C30.1065 66.0377 30.0732 67.1293 30.5649 68.021C31.0565 68.9209 31.9981 69.4792 33.023 69.4792H53.4468C54.1301 69.4792 54.6801 70.0292 54.6801 70.7125C54.6801 71.0374 54.5551 71.3458 54.3134 71.5874C54.0885 71.8207 53.7801 71.9457 53.4468 71.9457H39.8476C38.931 71.9457 38.1811 72.6957 38.1811 73.6123C38.1811 74.5289 38.931 75.2789 39.8476 75.2789H59.3381C60.0131 75.2789 60.5631 75.8288 60.5631 76.5038V76.7371C60.5631 77.4037 59.9964 77.9704 59.3298 77.9704H39.4227C38.506 77.9704 37.7561 78.7203 37.7561 79.6369C37.7561 80.5536 38.506 81.3035 39.4227 81.3035H56.605C57.2799 81.3035 57.8299 81.8535 57.8299 82.5284C57.8299 82.8617 57.7049 83.1701 57.4799 83.3951C57.2383 83.6284 56.93 83.7617 56.605 83.7617H38.4894C37.5728 83.7617 36.8228 84.5117 36.8228 85.4283C36.8228 86.3449 37.5728 87.0948 38.4894 87.0948H46.2723C46.9555 87.0948 47.5055 87.6448 47.5055 88.3281V88.5614C47.5055 89.1697 47.0639 89.6697 46.4889 89.7697H44.564C44.489 89.7697 44.414 89.778 44.3474 89.7947H22.032V69.3292ZM83.595 89.778H72.8707V57.3549C72.8707 56.4383 72.1207 55.6884 71.2041 55.6884C70.2875 55.6884 69.5375 56.4383 69.5375 57.3549V89.778H50.672C50.7803 89.3947 50.8386 88.9864 50.8386 88.5697V88.3364C50.8386 87.9114 50.7803 87.4948 50.672 87.1032H56.605C57.8132 87.1032 58.9632 86.6282 59.8381 85.7616C60.6964 84.895 61.163 83.7534 61.163 82.5368C61.163 82.0118 61.0714 81.5035 60.9047 81.0285C62.6463 80.3869 63.8879 78.7037 63.8879 76.7454V76.5121C63.8879 73.9956 61.838 71.9541 59.3298 71.9541H57.8382C57.9466 71.5541 58.0049 71.1458 58.0049 70.7208C58.0049 68.2043 55.955 66.1544 53.4385 66.1544H33.9563C36.0562 62.5796 36.5562 59.4798 35.4312 56.9383C34.7979 55.5217 32.9647 52.9052 30.5399 53.2302C29.3399 53.3802 28.5983 54.1135 28.0067 55.1301V36.2562C28.0067 36.1229 28.115 36.0145 28.2567 36.0145H40.7142V47.8805C40.7142 48.7388 41.2226 49.5221 42.0058 49.872C42.7891 50.222 43.7141 50.0804 44.364 49.4971C45.8473 48.1471 47.3222 46.8056 48.8054 45.4556L54.0551 49.6804C54.4551 49.997 54.9301 50.1554 55.405 50.1554C55.73 50.1554 56.055 50.0804 56.355 49.9387C57.1133 49.5721 57.5882 48.8221 57.5882 47.9721V36.0229H61.8213C63.9045 38.631 66.5377 40.7309 69.5292 42.1725V50.922C69.5292 51.8386 70.2792 52.5885 71.1958 52.5885C72.1124 52.5885 72.8623 51.8386 72.8623 50.922V43.4557C74.8872 44.0557 76.9871 44.3557 79.137 44.3557C80.7285 44.3557 82.3034 44.1724 83.8367 43.8391V89.5447C83.8367 89.678 83.7284 89.7863 83.5867 89.7863L83.595 89.778Z" fill="#E30000"/>
</svg>
