<svg width="92" height="84" viewBox="0 0 92 84" fill="none" xmlns="http://www.w3.org/2000/svg">
<path d="M84.4367 72.2624H7.44123C3.34147 72.2624 0 68.9042 0 64.7795V7.48289C0 3.35813 3.34147 0 7.44123 0H84.4367C88.5364 0 91.8779 3.35813 91.8779 7.48289V64.7795C91.8779 68.9042 88.5364 72.2624 84.4367 72.2624ZM7.44123 3.33314C5.1747 3.33314 3.33314 5.19969 3.33314 7.48289V64.7795C3.33314 67.071 5.1747 68.9292 7.44123 68.9292H84.4367C86.7032 68.9292 88.5447 67.0627 88.5447 64.7795V7.48289C88.5447 5.19136 86.7032 3.33314 84.4367 3.33314H7.44123Z" fill="#E30000"/>
<path d="M70.9457 83.5283H20.9904C19.5571 83.5283 18.3155 82.5367 18.0406 81.1618C17.8406 80.1868 18.1405 79.1869 18.8405 78.4869C19.3738 77.937 20.1404 77.612 20.9321 77.612H33.298C33.523 77.612 33.7063 77.4953 33.8396 77.3537V77.1454L34.1313 76.8454L36.8144 71.4124C37.5561 69.9124 39.1143 68.9375 40.7892 68.9375H51.0803C52.7552 68.9375 54.3134 69.9124 55.055 71.4124L57.9049 77.1703C58.0382 77.3953 58.2715 77.6203 58.5715 77.6203H70.8457C71.679 77.6203 72.479 77.9703 73.0623 78.5703C73.1789 78.6953 73.2873 78.8286 73.3873 78.9702H73.9706L73.8956 80.7201C73.8622 81.4618 73.5456 82.1534 73.0289 82.67C72.504 83.2117 71.754 83.5283 70.9541 83.5283H70.9457ZM35.6228 80.1952H56.2466C55.755 79.8452 55.3383 79.3869 55.0217 78.8369L54.705 78.5203V78.212L52.0635 72.8873C51.8802 72.5123 51.4886 72.2706 51.0719 72.2706H40.7809C40.3642 72.2706 39.9809 72.5123 39.7976 72.8873L36.9978 78.5619C36.9728 78.6119 36.9478 78.6703 36.9144 78.7203L36.8644 78.8119C36.5478 79.3702 36.1228 79.8452 35.6228 80.2035V80.1952Z" fill="#E30000"/>
<path d="M81.6035 49.5721H10.2911C8.54952 49.5721 7.13293 48.1972 7.13293 46.514V24.532C7.13293 23.6153 7.88289 22.8654 8.7995 22.8654C9.71611 22.8654 10.4661 23.6153 10.4661 24.532V46.239H81.4369V10.9911H10.4661V17.7574C10.4661 18.674 9.71611 19.4239 8.7995 19.4239C7.88289 19.4239 7.13293 18.674 7.13293 17.7574V10.7161C7.13293 9.03288 8.54952 7.65796 10.2911 7.65796H81.6035C83.3451 7.65796 84.7617 9.03288 84.7617 10.7161V46.514C84.7617 48.1972 83.3451 49.5721 81.6035 49.5721Z" fill="#E30000"/>
<path d="M90.2113 56.705H1.66657C0.749955 56.705 0 55.955 0 55.0384C0 54.1218 0.749955 53.3718 1.66657 53.3718H90.2113C91.1279 53.3718 91.8779 54.1218 91.8779 55.0384C91.8779 55.955 91.1279 56.705 90.2113 56.705Z" fill="#E30000"/>
<path d="M45.9389 66.8876C43.5224 66.8876 41.5642 64.9127 41.5642 62.4879C41.5642 60.063 43.5308 58.0881 45.9389 58.0881C48.3471 58.0881 50.3137 60.063 50.3137 62.4879C50.3137 64.9127 48.3471 66.8876 45.9389 66.8876ZM45.9389 61.4213C45.364 61.4213 44.8973 61.8962 44.8973 62.4879C44.8973 63.0795 45.364 63.5545 45.9389 63.5545C46.5139 63.5545 46.9806 63.0795 46.9806 62.4879C46.9806 61.8962 46.5139 61.4213 45.9389 61.4213Z" fill="#E30000"/>
<path d="M45.9556 39.3561C40.0726 39.3561 35.2896 34.5397 35.2896 28.6151C35.2896 22.6904 40.0726 17.874 45.9556 17.874C46.8722 17.874 47.7721 17.9907 48.6304 18.2157C49.522 18.449 50.047 19.3656 49.8137 20.2572C49.5804 21.1488 48.6721 21.6738 47.7721 21.4405C47.1888 21.2822 46.5805 21.2072 45.9472 21.2072C41.9058 21.2072 38.6143 24.532 38.6143 28.6151C38.6143 32.6981 41.9058 36.0229 45.9472 36.0229C49.7387 36.0229 52.9468 33.0398 53.2635 29.24C53.3385 28.3234 54.1468 27.6318 55.0634 27.7151C55.98 27.7901 56.6633 28.5984 56.5883 29.515C56.1383 35.0313 51.4636 39.3561 45.9556 39.3561Z" fill="#E30000"/>
<path d="M44.7973 33.6231C44.7973 33.6231 44.7473 33.6231 44.7223 33.6231C44.064 33.5981 43.4307 33.3065 42.9891 32.8232L41.1975 30.8399C40.5809 30.1567 40.6309 29.1067 41.3142 28.4901C41.9975 27.8735 43.0474 27.9235 43.664 28.6067L44.8389 29.9067L46.8388 27.9901C48.5804 26.3235 50.322 24.6486 52.0719 22.9821C52.7385 22.3488 53.7884 22.3655 54.4301 23.0321C55.0633 23.6987 55.0384 24.7486 54.3801 25.3903C52.6385 27.0568 50.8969 28.7234 49.1554 30.39L46.4889 32.9482C46.0472 33.3815 45.4306 33.6231 44.8056 33.6231H44.7973ZM44.1807 30.54C44.1807 30.54 44.1807 30.54 44.1723 30.5483H44.1807V30.54Z" fill="#E30000"/>
</svg>
