<svg width="130" height="46" viewBox="0 0 130 46" fill="none" xmlns="http://www.w3.org/2000/svg">
<path d="M53.326 4.96778C53.326 5.16455 53.2996 5.36741 53.2489 5.57635C53.0907 6.20926 52.7296 6.75698 52.1738 7.20124C51.6118 7.64955 51.0012 7.87878 50.3561 7.87878C49.6461 7.87878 49.0599 7.5968 48.6603 7.06532C48.2687 6.54397 48.1511 5.90093 48.3235 5.20919C48.4817 4.57627 48.8428 4.02856 49.3966 3.5843C49.9585 3.13599 50.5691 2.90674 51.2142 2.90674C51.9242 2.90674 52.5105 3.18871 52.9121 3.7202C53.186 4.08534 53.326 4.50932 53.326 4.96778Z" fill="#E30000"/>
<path d="M0.491763 45.5027C0.0373624 45.3019 -0.149267 44.6467 0.134734 43.8271C0.684478 42.2367 2.17548 40.6463 2.91794 39.0762C4.50226 35.725 5.54697 32.1446 6.45374 28.558C7.87375 22.949 9.00569 17.2061 11.4684 11.9704C15.1786 4.0853 23.4471 -3.67602 32.4154 1.8843C37.6025 5.10162 37.8987 10.808 38.8075 16.2385C38.9414 17.0398 39.1361 17.8796 39.696 18.4699C40.4973 19.3158 41.8747 19.4011 42.9397 18.9304C45.3294 17.8735 46.0353 15.1268 47.366 13.1266C47.8286 12.4308 48.5872 11.729 49.3885 11.9602C50.2304 12.2016 50.4738 13.2768 50.4515 14.1531C50.3298 19.2834 45.9501 24.2088 40.6555 24.1439C39.0245 24.1236 37.3733 23.5393 36.2211 22.3851C33.1559 19.3138 34.3061 14.4047 32.245 10.8283C31.1861 8.99039 29.3158 7.63734 27.2385 7.20728C22.1042 6.14431 18.1465 10.6193 16.0874 14.7515C11.9674 23.022 8.97121 31.7956 5.04997 40.1594C4.24463 41.8776 3.38248 43.6182 2.01928 44.9367C1.40665 45.5271 0.862992 45.665 0.493792 45.5007L0.491763 45.5027Z" fill="#E30000"/>
<path d="M69.5789 16.1736L67.9784 22.5941C67.8425 23.1418 67.5463 23.6002 67.1 23.9572C66.6476 24.3183 66.1344 24.5029 65.5766 24.5029C64.7854 24.5029 64.3412 24.1317 64.1079 23.8193C63.8786 23.515 63.6474 22.9917 63.8381 22.2249L65.4386 15.8044C65.7287 14.6441 65.6618 13.79 65.2439 13.2667C64.8158 12.7311 64.1119 12.4694 63.0936 12.4694C62.4728 12.4694 61.8663 12.5972 61.2922 12.8488C60.7181 13.1003 60.2292 13.4432 59.8377 13.8671C59.4584 14.2789 59.2109 14.7252 59.0851 15.2303L57.2513 22.59C57.1154 23.1337 56.8273 23.5901 56.3932 23.9471C55.9489 24.3123 55.4296 24.4989 54.8495 24.4989C54.0603 24.4989 53.6141 24.1277 53.3808 23.8153C53.1536 23.511 52.9203 22.9876 53.111 22.2208L56.0139 10.5808C56.1559 10.0128 56.4561 9.54829 56.9044 9.19937C57.3527 8.85046 57.8619 8.67195 58.4157 8.67195C59.2251 8.67195 59.6693 9.03507 59.8986 9.34139C59.9615 9.42456 60.0223 9.52598 60.0771 9.64364C60.495 9.41036 60.9331 9.20951 61.3896 9.04317C62.3105 8.71048 63.262 8.54211 64.2174 8.54211C65.5583 8.54211 66.7186 8.84438 67.666 9.44281C68.1589 9.75319 68.5728 10.1386 68.9075 10.591C69.2422 11.0454 69.4958 11.5667 69.6662 12.157C69.9928 13.2849 69.9644 14.6339 69.581 16.1695L69.5789 16.1736Z" fill="#2B201A"/>
<path d="M101.515 11.291C101.393 11.7758 101.119 12.1836 100.697 12.5C100.286 12.8084 99.8069 12.9646 99.2754 12.9646H97.6525L96.1899 18.8332C96.0642 19.3363 96.0844 19.7258 96.2528 20.022C96.3826 20.2512 96.5409 20.3405 96.8228 20.3405H97.7093C98.2794 20.3405 98.7581 20.5941 99.0543 21.0545C99.3281 21.4826 99.393 21.9978 99.245 22.5902C99.105 23.1561 98.7784 23.6187 98.2773 23.9696C97.8026 24.3023 97.2509 24.4727 96.6403 24.4727H96.1717C95.1553 24.4727 94.2709 24.1988 93.5447 23.6552C92.8144 23.1095 92.3133 22.3609 92.0618 21.4318C91.8183 20.5433 91.8305 19.5432 92.1023 18.462L93.4737 12.9605H93.2485C92.5 12.9605 92.076 12.642 91.8528 12.3722C91.6216 12.0943 91.3802 11.6156 91.5546 10.9178C91.6845 10.3964 91.9624 9.97242 92.3843 9.65799C92.7961 9.34965 93.2749 9.19144 93.8064 9.19144H94.4129L95.2061 6.01062C95.342 5.4629 95.6321 5.01053 96.0682 4.66161C96.5104 4.30864 97.0176 4.13013 97.5754 4.13013C98.3646 4.13013 98.8048 4.49325 99.034 4.79957C99.2592 5.0998 99.4864 5.61707 99.2957 6.38184L98.5938 9.19347H99.8373C100.584 9.19347 101.008 9.51396 101.231 9.78173C101.464 10.0617 101.702 10.5485 101.517 11.289L101.515 11.291Z" fill="#2B201A"/>
<path d="M118.514 16.1734L116.914 22.5939C116.776 23.1416 116.482 23.6 116.033 23.9571C115.581 24.3181 115.07 24.5028 114.51 24.5028C113.721 24.5028 113.274 24.1315 113.041 23.8191C112.814 23.5148 112.581 22.9915 112.771 22.2247L114.374 15.8042C114.662 14.6439 114.597 13.7899 114.179 13.2665C113.751 12.7309 113.047 12.4692 112.029 12.4692C111.408 12.4692 110.802 12.597 110.228 12.8486C109.653 13.1001 109.165 13.443 108.773 13.8669C108.392 14.2787 108.146 14.727 108.02 15.2301L106.185 22.5898C106.049 23.1335 105.761 23.5899 105.326 23.9469C104.88 24.3121 104.361 24.4987 103.783 24.4987C102.992 24.4987 102.547 24.1275 102.314 23.8151C102.085 23.5108 101.854 22.9874 102.044 22.2206L106.471 4.47262C106.613 3.90462 106.911 3.44006 107.361 3.08911C107.809 2.7402 108.319 2.56372 108.872 2.56372C109.682 2.56372 110.126 2.92887 110.355 3.23316C110.58 3.53339 110.806 4.05472 110.611 4.84181L109.473 9.40204C109.749 9.26815 110.033 9.14846 110.323 9.04298C111.244 8.71029 112.195 8.54192 113.151 8.54192C114.492 8.54192 115.652 8.8442 116.599 9.44262C117.092 9.753 117.506 10.1384 117.841 10.5908C118.175 11.0452 118.429 11.5665 118.599 12.1569C118.926 13.2847 118.898 14.6337 118.514 16.1694V16.1734Z" fill="#2B201A"/>
<path d="M127.481 14.2036L125.294 22.5756C125.16 23.1091 124.872 23.5655 124.438 23.9246C123.993 24.2897 123.474 24.4763 122.894 24.4763C122.103 24.4763 121.659 24.1051 121.425 23.7927C121.196 23.4904 120.965 22.965 121.155 22.1982L123.342 13.8263C123.482 13.2664 123.782 12.8019 124.231 12.4509C124.679 12.102 125.188 11.9255 125.742 11.9255C126.551 11.9255 126.996 12.2886 127.225 12.595C127.45 12.8952 127.675 13.4186 127.481 14.2036Z" fill="#2B201A"/>
<path d="M130 4.96753C130 5.1643 129.974 5.36716 129.923 5.57611C129.765 6.20902 129.404 6.75674 128.848 7.201C128.286 7.64931 127.675 7.87853 127.03 7.87853C126.32 7.87853 125.732 7.59656 125.332 7.06507C124.941 6.54373 124.825 5.90069 124.996 5.20895C125.154 4.57603 125.515 4.02831 126.071 3.58406C126.631 3.13574 127.243 2.90649 127.888 2.90649C128.598 2.90649 129.185 3.18847 129.584 3.71995C129.858 4.0851 129.998 4.50908 129.998 4.96753H130Z" fill="#2B201A"/>
<path d="M86.9677 11.5021C86.0569 10.2727 84.6572 9.38423 83.0303 9.00083C81.5433 8.64989 79.961 8.73307 78.5796 9.23616C76.125 10.1308 74.0741 12.5184 73.2241 15.4659C72.4573 18.1314 72.8204 20.7808 74.1958 22.5517C75.5651 24.3146 77.7134 25.057 79.7643 25.057C80.5148 25.057 81.2512 24.9576 81.9308 24.773C80.2815 27.5866 78.1394 29.2115 76.1635 29.3373C74.9281 29.4164 73.5284 28.8788 72.1165 27.7854C71.3173 27.1667 70.1691 27.3128 69.5504 28.112C68.9317 28.9113 69.0777 30.0595 69.877 30.6782C71.8488 32.2057 73.9301 33.0029 75.9262 33.0029C76.0844 33.0029 76.2406 32.9989 76.3968 32.9867C79.3261 32.8001 82.1478 30.95 84.3427 27.7753C86.2395 25.0306 87.5154 21.5597 88.0692 17.6568C88.5541 15.3361 88.1626 13.1229 86.9616 11.5041L86.9677 11.5021ZM84.3894 17.3383C83.9046 19.0788 82.73 20.5556 81.3973 21.1013C80.0442 21.6571 77.9913 21.4685 77.0886 20.3081C76.4354 19.4703 76.3035 18.0036 76.7437 16.4802C77.2671 14.6626 78.4802 13.1696 79.8353 12.6746C81.1417 12.1979 83.1155 12.4474 84.0283 13.6808C84.4137 14.2001 84.6146 14.9162 84.6186 15.7235C84.6207 16.1333 84.572 16.5654 84.4726 17.0096C84.4482 17.1192 84.4198 17.2287 84.3894 17.3383Z" fill="#2B201A"/>
<path d="M84.6165 15.7233C84.6185 16.133 84.5699 16.5651 84.4705 17.0094C84.5293 16.5895 84.578 16.1614 84.6165 15.7233Z" fill="#2B201A"/>
</svg>
