<svg width="1431" height="360" viewBox="0 0 1431 360" fill="none" xmlns="http://www.w3.org/2000/svg">
<g clip-path="url(#clip0_280_16)">
<path d="M691.12 255.91C678.08 252.8 665.22 249.9 651.8 247.05C597.67 235.57 577.48 234.34 563.82 236.02C563.06 236.11 561.4 236.3 558.99 236.58C555.58 236.97 550.68 237.54 544.73 238.24C538.35 238.98 531.14 239.62 522.01 240.25H521.85L521.71 240.18C515.13 236.1 508.55 231.74 502.17 227.21C494.73 221.94 489.53 217.86 485.36 214.58C477.84 208.67 473.69 205.42 465.82 202.67C454.22 198.61 444.36 199.06 439.52 199.7C435.69 200.19 431.89 201.1 428.24 202.38L427.98 202.47L427.76 202.3C412.07 189.91 395.96 177.49 379.88 165.37C337.01 133.08 333.28 132.4 329.33 131.68C313.3 128.78 299.25 134.12 285.66 139.28C274.77 143.41 263.52 147.68 251.35 147.68C251.18 147.68 251.01 147.68 250.84 147.68H250.55C242.56 147.58 234.46 148.21 226.48 149.53C221.98 150.28 217.73 151.22 213.84 152.32C208.11 153.93 202.45 156.02 197.02 158.52L196.75 158.64L196.51 158.47C188.61 152.7 180.38 147.41 172.07 142.76C164.27 138.39 153.79 133.08 147.93 131.05C130.58 125.03 114.58 133.95 75.91 155.5L75.67 155.63C64.71 161.74 53.76 167.84 42.81 173.94L16.41 188.64L15.92 187.77L42.31 173.06C53.26 166.96 64.22 160.86 75.18 154.75L75.42 154.62C114.37 132.91 130.49 123.93 148.25 130.1C154.57 132.29 165.29 137.82 172.55 141.89C180.82 146.51 188.99 151.76 196.85 157.49C202.25 155.02 207.86 152.96 213.55 151.36C217.47 150.25 221.76 149.3 226.3 148.55C234.34 147.22 242.5 146.59 250.55 146.69H250.83C251 146.69 251.17 146.69 251.33 146.69C263.33 146.69 274.49 142.45 285.29 138.35C299.01 133.14 313.2 127.77 329.49 130.71C333.74 131.48 337.4 132.14 380.46 164.58C396.48 176.65 412.52 189.02 428.15 201.36C431.79 200.1 435.57 199.21 439.38 198.72C444.31 198.08 454.34 197.62 466.14 201.74C474.17 204.54 478.36 207.83 485.97 213.81C490.14 217.08 495.32 221.15 502.74 226.41C509.06 230.89 515.57 235.21 522.1 239.26C531.13 238.64 538.29 238 544.61 237.26C550.56 236.56 555.46 236 558.87 235.6C561.28 235.32 562.95 235.13 563.7 235.04C577.46 233.35 597.75 234.57 652.01 246.08C665.44 248.93 678.31 251.83 691.35 254.94L691.12 255.91Z" fill="white"/>
<path d="M377.44 243.06L376.74 242.35C382.58 236.62 388.76 231.24 395.12 226.36C403.42 220 412.22 214.33 421.29 209.53L421.76 210.41C412.74 215.19 403.98 220.82 395.73 227.15C389.4 232.01 383.25 237.36 377.44 243.06Z" fill="white"/>
<path d="M1157.23 151.15H1111.89C1111.61 151.15 1111.39 150.93 1111.39 150.65C1111.39 146.49 1114.72 143.17 1118.81 143.17C1119.56 143.17 1120.29 143.28 1121 143.5C1121.09 140.32 1123.71 137.76 1126.91 137.76C1128.15 137.76 1129.33 138.14 1130.31 138.84C1131.15 133.28 1135.98 129.05 1141.71 129.05C1147.96 129.05 1153.23 134.33 1153.23 140.57C1153.23 141.59 1153.09 142.62 1152.82 143.61C1155.74 144.66 1157.74 147.46 1157.74 150.59C1157.74 150.63 1157.74 150.66 1157.73 150.7C1157.71 150.96 1157.49 151.16 1157.23 151.16V151.15ZM1112.4 150.15H1156.72C1156.53 147.48 1154.67 145.16 1152.06 144.41C1151.93 144.37 1151.82 144.29 1151.76 144.17C1151.7 144.05 1151.68 143.91 1151.72 143.78C1152.06 142.73 1152.23 141.65 1152.23 140.56C1152.23 134.86 1147.41 130.04 1141.71 130.04C1136.01 130.04 1131.57 134.35 1131.21 139.85C1131.2 140.05 1131.07 140.22 1130.89 140.28C1130.7 140.35 1130.5 140.3 1130.36 140.17C1129.45 139.26 1128.22 138.75 1126.91 138.75C1124.2 138.75 1122 140.96 1122 143.67C1122 143.84 1122 144.01 1122.02 144.19C1122.02 144.36 1121.95 144.53 1121.81 144.63C1121.67 144.73 1121.49 144.75 1121.33 144.68C1120.52 144.34 1119.68 144.17 1118.81 144.17C1115.41 144.17 1112.62 146.82 1112.4 150.15Z" fill="white"/>
<path d="M1365.31 71.1H1319.98C1319.7 71.1 1319.48 70.88 1319.48 70.6C1319.48 66.44 1322.8 63.12 1326.89 63.12C1327.63 63.12 1328.37 63.23 1329.08 63.45C1329.17 60.27 1331.79 57.71 1335 57.71C1336.24 57.71 1337.42 58.09 1338.4 58.79C1339.24 53.23 1344.07 49 1349.79 49C1356.04 49 1361.31 54.28 1361.31 60.52C1361.31 61.54 1361.17 62.56 1360.9 63.56C1363.82 64.61 1365.82 67.41 1365.82 70.54C1365.82 70.58 1365.82 70.61 1365.81 70.65C1365.79 70.91 1365.57 71.11 1365.31 71.11V71.1ZM1320.49 70.1H1364.8C1364.62 67.43 1362.75 65.11 1360.15 64.36C1360.02 64.32 1359.91 64.24 1359.85 64.12C1359.79 64 1359.77 63.86 1359.81 63.73C1360.14 62.67 1360.31 61.58 1360.31 60.51C1360.31 54.81 1355.49 49.99 1349.79 49.99C1344.09 49.99 1339.66 54.3 1339.3 59.8C1339.29 60 1339.16 60.17 1338.98 60.23C1338.8 60.3 1338.59 60.26 1338.45 60.12C1337.53 59.21 1336.31 58.7 1335 58.7C1332.29 58.7 1330.08 60.91 1330.08 63.62C1330.08 63.78 1330.08 63.95 1330.11 64.11C1330.13 64.28 1330.06 64.46 1329.91 64.57C1329.77 64.68 1329.58 64.7 1329.42 64.63C1328.6 64.29 1327.75 64.12 1326.89 64.12C1323.5 64.12 1320.72 66.76 1320.49 70.1Z" fill="white"/>
<path d="M259.64 89.4001H212.24C211.96 89.4001 211.74 89.1801 211.74 88.9001C211.74 84.5701 215.2 81.1101 219.46 81.1101C220.24 81.1101 221.01 81.2301 221.76 81.4601C221.84 78.1301 224.57 75.4501 227.92 75.4501C229.22 75.4501 230.46 75.8501 231.5 76.5901C232.36 70.7701 237.41 66.3301 243.39 66.3301C249.91 66.3301 255.41 71.8401 255.41 78.3501C255.41 79.4301 255.26 80.5001 254.98 81.5401C257.99 82.6201 260.06 85.4701 260.12 88.6901C260.13 88.7301 260.14 88.7801 260.14 88.8201V88.8901C260.14 89.1701 259.92 89.3901 259.64 89.3901V89.4001ZM212.75 88.4001H259.1C258.92 85.5901 256.96 83.1401 254.22 82.3601C254.09 82.3201 253.98 82.2401 253.92 82.1201C253.86 82.0001 253.84 81.8601 253.88 81.7301C254.23 80.6401 254.41 79.5101 254.41 78.3701C254.41 72.4001 249.36 67.3501 243.39 67.3501C237.42 67.3501 232.78 71.8701 232.39 77.6301C232.38 77.8301 232.25 78.0001 232.07 78.0601C231.89 78.1301 231.68 78.0901 231.54 77.9501C230.58 76.9901 229.29 76.4601 227.92 76.4601C225.07 76.4601 222.76 78.7801 222.76 81.6201C222.76 81.7901 222.77 81.9401 222.79 82.1001C222.81 82.2701 222.73 82.4701 222.59 82.5701C222.45 82.6701 222.27 82.7201 222.1 82.6501C221.25 82.3001 220.36 82.1201 219.46 82.1201C215.9 82.1201 212.97 84.9001 212.75 88.4101V88.4001Z" fill="white"/>
<path d="M111.77 218.19L111.03 217.52C118.97 208.71 127.63 200.74 136.78 193.84C153.15 181.5 171.15 172.48 190.28 167.01L190.56 167.97C171.55 173.4 153.66 182.37 137.39 194.63C128.29 201.49 119.68 209.42 111.78 218.18L111.77 218.19Z" fill="white"/>
<path d="M172.24 214.8L171.44 214.2C183.78 197.59 197.61 186.05 212.56 179.9C218.98 177.26 224.94 175.88 231.26 174.41C239.83 172.42 249.54 170.16 262.87 164.24C270.02 161.06 277.12 157.31 283.98 153.08L284.51 153.93C277.62 158.18 270.48 161.95 263.29 165.15C249.87 171.11 240.11 173.38 231.5 175.38C225.23 176.84 219.31 178.21 212.96 180.82C198.18 186.9 184.49 198.33 172.26 214.79L172.24 214.8Z" fill="white"/>
<path d="M1030.85 204.86H1029.85V192.76H1039.4C1037.26 190.51 1035.12 188.26 1032.98 186L1031.3 184.23H1021.88L1018.46 178.94L1015.03 184.23H1007.11V183.23H1014.49L1018.46 177.1L1022.42 183.23H1031.72L1033.7 185.31C1036.11 187.85 1038.52 190.38 1040.93 192.91L1041.73 193.75H1030.84V204.85L1030.85 204.86Z" fill="white"/>
<path d="M1003.08 254.19H1002.08V196.63C1002.08 194.49 1001.79 192.37 1001.22 190.33C1000.22 186.78 998.37 183.52 995.88 180.91C995.74 180.77 995.63 180.66 995.52 180.54C991.57 176.59 986.39 174.4 980.93 174.4C975.47 174.4 970.29 176.58 966.34 180.55C963.67 183.22 961.7 186.6 960.66 190.33C960.09 192.37 959.8 194.49 959.8 196.63V254.19H958.8V196.63C958.8 194.39 959.1 192.18 959.7 190.06C960.79 186.17 962.84 182.64 965.64 179.85C969.79 175.69 975.22 173.41 980.94 173.41C986.66 173.41 992.1 175.7 996.25 179.85C996.37 179.97 996.47 180.08 996.57 180.18C999.22 182.95 1001.15 186.35 1002.2 190.06C1002.8 192.19 1003.1 194.4 1003.1 196.63V254.19H1003.08Z" fill="white"/>
<path d="M988.376 154.76L947.9 176.847L948.379 177.724L988.855 155.638L988.376 154.76Z" fill="white"/>
<path d="M973.433 154.742L972.954 155.62L975.272 156.883L975.75 156.005L973.433 154.742Z" fill="white"/>
<path d="M1013.48 177.73L975.33 156.92L975.8 156.05L981.17 158.96L1013.96 176.86L1013.48 177.73Z" fill="white"/>
<path d="M932 254.19H931V193.76H920.25L921.05 192.92C924.08 189.74 927.09 186.57 930.11 183.39L930.26 183.23H939.16L943.13 177.1L947.1 183.23H954.75V184.23H946.55L943.12 178.94L939.69 184.23H930.68C927.98 187.08 925.28 189.92 922.57 192.76H931.99V254.19H932Z" fill="white"/>
<path d="M951.87 169.98L952.2 168.83C952.43 168.03 952.66 166.9 952.89 165.81C953.12 164.71 953.36 163.57 953.6 162.74L953.66 162.54L953.84 162.44C961.14 158.46 968.43 154.48 975.74 150.5L975.98 150.37L980.87 153.01L981.38 152.73V154.42L980.87 154.15L951.87 169.98ZM954.5 163.22C954.29 164 954.07 165.03 953.87 166.02C953.73 166.69 953.59 167.36 953.44 167.98L979.82 153.58L975.98 151.51C968.81 155.42 961.66 159.32 954.5 163.22Z" fill="white"/>
<path d="M1010.12 170.37L1008.91 169.38C1001.29 165.22 993.68 161.07 986.07 156.92C984.86 156.26 983.64 155.6 982.43 154.93L974.96 150.93L980.95 147.66L995.29 155.48C999.54 157.8 1003.79 160.11 1008.04 162.43L1008.22 162.53L1008.28 162.73C1008.51 163.55 1008.74 164.66 1008.97 165.73C1009.2 166.84 1009.45 167.99 1009.68 168.81L1010.12 170.35V170.37ZM980.88 153.01L981.17 153.12L982.89 154.06C984.1 154.72 985.31 155.39 986.53 156.04C993.82 160.01 1001.12 163.99 1008.42 167.97C1008.27 167.33 1008.13 166.63 1007.98 165.95C1007.78 164.98 1007.57 163.98 1007.36 163.21C1003.17 160.93 998.98 158.65 994.79 156.36L980.92 148.8L977.02 150.93L980.86 153L980.88 153.01Z" fill="white"/>
<path d="M981.43 140.63H980.43V148.24H981.43V140.63Z" fill="white"/>
<path d="M981.17 153.99L980.88 153.58L980.66 153.13L980.71 153.1L988.28 148.98L988.76 149.86L981.17 153.99Z" fill="white"/>
<path d="M981.166 153.171L980.69 154.051L988.177 158.096L988.653 157.216L981.166 153.171Z" fill="white"/>
<path d="M973.344 148.935L972.87 149.815L975.688 151.332L976.162 150.451L973.344 148.935Z" fill="white"/>
<path d="M1018.95 173.92H1017.95V178.02H1018.95V173.92Z" fill="white"/>
<path d="M943.61 173.92H942.61V178.02H943.61V173.92Z" fill="white"/>
<path d="M1007.61 173.54H1006.61V183.73H1007.61V173.54Z" fill="white"/>
<path d="M955.25 173.54H954.25V183.73H955.25V173.54Z" fill="white"/>
<path d="M1003.08 165.36H1002.08V171.21H1003.08V165.36Z" fill="white"/>
<path d="M959.78 165.36H958.78V171.21H959.78V165.36Z" fill="white"/>
<path d="M796.72 306.61H736.54L736.42 306.54C734.21 305.22 732.3 303.4 730.88 301.28C728.84 298.24 728.2 295.19 728.02 293.16L727.96 292.51L728.61 292.63C741.33 294.94 754.34 296.19 767.27 296.32C778.35 296.44 789.57 295.74 800.6 294.24L801.17 294.16V294.74C801.13 297.41 800.57 299.95 799.49 302.3C798.8 303.79 797.92 305.18 796.87 306.44L796.72 306.62V306.61ZM736.81 305.61H796.25C797.18 304.47 797.97 303.22 798.58 301.88C799.52 299.83 800.05 297.62 800.15 295.31C789.26 296.76 778.21 297.44 767.25 297.32C754.48 297.19 741.64 295.98 729.08 293.73C729.33 295.61 729.99 298.18 731.71 300.73C733.02 302.69 734.78 304.38 736.81 305.61Z" fill="white"/>
<path d="M383.58 302.5C373.32 302.5 358.04 301.35 358.04 298.18C358.04 295.01 373.31 293.86 383.58 293.86C393.85 293.86 409.12 295.01 409.12 298.18C409.12 301.35 393.85 302.5 383.58 302.5ZM383.58 294.87C367.47 294.87 359.04 297.03 359.04 298.19C359.04 299.35 367.47 301.51 383.58 301.51C399.69 301.51 408.12 299.35 408.12 298.19C408.12 297.03 399.69 294.87 383.58 294.87Z" fill="white"/>
<path d="M460.65 320.12C435.96 320.12 409.71 317.12 409.71 311.56C409.71 306 435.95 303 460.65 303C485.35 303 511.59 306 511.59 311.56C511.59 315.09 501.22 317.18 492.52 318.32C492.25 318.36 492 318.16 491.96 317.89C491.92 317.62 492.12 317.37 492.39 317.33C505.83 315.58 510.59 313.13 510.59 311.57C510.59 307.99 490.08 304.01 460.65 304.01C431.22 304.01 410.71 307.99 410.71 311.57C410.71 315.15 431.22 319.13 460.65 319.13C469.3 319.13 477.82 318.78 485.27 318.11C485.54 318.1 485.79 318.29 485.81 318.56C485.83 318.83 485.63 319.08 485.36 319.1C477.88 319.77 469.33 320.13 460.65 320.13V320.12Z" fill="white"/>
<path d="M1063.21 318.62C1052.64 318.62 1036.92 317.35 1036.92 313.86C1036.92 310.37 1052.64 309.1 1063.21 309.1C1073.78 309.1 1089.5 310.37 1089.5 313.86C1089.5 314.98 1088.06 315.88 1084.97 316.67C1084.7 316.74 1084.43 316.58 1084.36 316.31C1084.29 316.04 1084.45 315.77 1084.72 315.7C1087.7 314.94 1088.49 314.18 1088.49 313.86C1088.49 312.29 1078.87 310.1 1063.2 310.1C1047.53 310.1 1037.91 312.29 1037.91 313.86C1037.91 315.43 1047.53 317.62 1063.2 317.62C1070 317.62 1076.36 317.19 1081.13 316.42C1081.4 316.37 1081.66 316.56 1081.7 316.83C1081.74 317.1 1081.56 317.36 1081.29 317.4C1076.47 318.18 1070.05 318.62 1063.2 318.62H1063.21Z" fill="white"/>
<path d="M546.83 359.49C546.83 359.49 546.8 359.49 546.78 359.49C524.87 357.48 510.71 352.52 510.71 346.86C510.71 339.26 535.76 333.3 567.74 333.3C599.72 333.3 624.77 339.26 624.77 346.86C624.77 348.81 623.21 350.65 620.12 352.35C619.88 352.48 619.57 352.39 619.44 352.15C619.31 351.91 619.4 351.6 619.64 351.47C622.34 349.98 623.77 348.39 623.77 346.86C623.77 340.8 601.25 334.3 567.74 334.3C534.23 334.3 511.71 340.79 511.71 346.86C511.71 351.89 525.84 356.56 546.87 358.49C547.14 358.52 547.35 358.76 547.32 359.03C547.3 359.29 547.08 359.48 546.82 359.48L546.83 359.49Z" fill="white"/>
<path d="M1231.43 353.28C1223.01 353.28 1214.91 352.92 1207.34 352.22C1207.07 352.19 1206.86 351.95 1206.89 351.68C1206.92 351.41 1207.15 351.21 1207.43 351.23C1214.97 351.93 1223.04 352.29 1231.42 352.29C1264.73 352.29 1287.11 346.81 1287.11 341.69C1287.11 336.57 1264.73 331.08 1231.42 331.08C1198.11 331.08 1175.72 336.56 1175.72 341.69C1175.72 345.29 1186.49 348.86 1203.16 350.79C1203.43 350.82 1203.63 351.07 1203.6 351.34C1203.57 351.62 1203.31 351.81 1203.05 351.78C1194.53 350.8 1174.73 347.84 1174.73 341.69C1174.73 334.43 1203.56 330.08 1231.43 330.08C1259.3 330.08 1288.12 334.42 1288.12 341.69C1288.12 348.96 1259.3 353.29 1231.43 353.29V353.28Z" fill="white"/>
<path d="M1342.52 297C1339.43 297 1336.35 296.946 1333.36 296.838C1333.07 296.831 1332.86 296.646 1332.87 296.438C1332.88 296.223 1333.12 296.038 1333.4 296.069C1336.37 296.176 1339.45 296.23 1342.52 296.23C1364.61 296.23 1380 293.475 1380 291.004C1380 288.533 1364.61 285.777 1342.52 285.777C1320.42 285.777 1305.02 288.533 1305.02 291.004C1305.02 292.158 1308.98 293.936 1320.15 295.145C1320.42 295.176 1320.61 295.368 1320.57 295.584C1320.53 295.792 1320.29 295.945 1320 295.907C1314.02 295.26 1304 293.759 1304 290.996C1304 287.101 1323.84 285 1342.51 285C1361.17 285 1381 287.101 1381 290.996C1381 294.891 1361.16 296.992 1342.51 296.992L1342.52 297Z" fill="white"/>
<path d="M262.4 332H262.38C245.28 331.16 225.32 328.43 225.32 323.49C225.32 317.73 252.1 314.62 277.3 314.62C302.5 314.62 329.28 317.73 329.28 323.49C329.28 326.96 319.62 329.08 311.52 330.25C311.25 330.28 310.99 330.1 310.95 329.83C310.91 329.56 311.1 329.3 311.37 329.26C323.83 327.46 328.27 325.1 328.27 323.49C328.27 319.77 307.33 315.62 277.29 315.62C247.25 315.62 226.31 319.77 226.31 323.49C226.31 326.28 238.97 329.86 262.42 331.01C262.7 331.02 262.91 331.26 262.89 331.53C262.88 331.8 262.66 332.01 262.39 332.01L262.4 332Z" fill="white"/>
<path d="M205.76 320.64C186.19 320.64 165.39 317.77 165.39 312.45C165.39 308.17 179 306.1 184.85 305.4C185.12 305.36 185.37 305.56 185.4 305.84C185.43 306.11 185.24 306.36 184.96 306.39C171.25 308.02 166.38 310.67 166.38 312.45C166.38 315.85 182.55 319.64 205.75 319.64C228.95 319.64 245.12 315.85 245.12 312.45C245.12 309.05 228.95 305.26 205.75 305.26C201.69 305.26 197.79 305.37 194.17 305.59C193.87 305.62 193.66 305.4 193.64 305.12C193.62 304.84 193.83 304.61 194.11 304.59C197.76 304.37 201.68 304.26 205.75 304.26C225.32 304.26 246.12 307.13 246.12 312.45C246.12 317.77 225.32 320.64 205.75 320.64H205.76Z" fill="white"/>
<path d="M1084.69 353.59H1018.29C1018.01 353.59 1017.79 353.37 1017.79 353.09C1017.79 352.81 1018.01 352.59 1018.29 352.59H1084.69C1084.97 352.59 1085.19 352.81 1085.19 353.09C1085.19 353.37 1084.97 353.59 1084.69 353.59Z" fill="white"/>
<path d="M975.04 319.06H916.65C916.37 319.06 916.15 318.84 916.15 318.56C916.15 318.28 916.37 318.06 916.65 318.06H975.04C975.32 318.06 975.54 318.28 975.54 318.56C975.54 318.84 975.32 319.06 975.04 319.06Z" fill="white"/>
<path d="M936.73 329.22H878.34C878.06 329.22 877.84 329 877.84 328.72C877.84 328.44 878.06 328.22 878.34 328.22H936.73C937.01 328.22 937.23 328.44 937.23 328.72C937.23 329 937.01 329.22 936.73 329.22Z" fill="white"/>
<path d="M811.8 306.61H712.96C712.68 306.61 712.46 306.39 712.46 306.11C712.46 305.83 712.68 305.61 712.96 305.61H811.8C812.08 305.61 812.3 305.83 812.3 306.11C812.3 306.39 812.08 306.61 811.8 306.61Z" fill="white"/>
<path d="M639.62 295.96H590.12C589.84 295.96 589.62 295.74 589.62 295.46C589.62 295.18 589.84 294.96 590.12 294.96H639.62C639.9 294.96 640.12 295.18 640.12 295.46C640.12 295.74 639.9 295.96 639.62 295.96Z" fill="white"/>
<path d="M730.67 337.23H681.17C680.89 337.23 680.67 337.01 680.67 336.73C680.67 336.45 680.89 336.23 681.17 336.23H730.67C730.95 336.23 731.17 336.45 731.17 336.73C731.17 337.01 730.95 337.23 730.67 337.23Z" fill="white"/>
<path d="M586.56 295.96H583.01C582.73 295.96 582.51 295.74 582.51 295.46C582.51 295.18 582.73 294.96 583.01 294.96H586.56C586.84 294.96 587.06 295.18 587.06 295.46C587.06 295.74 586.84 295.96 586.56 295.96Z" fill="white"/>
<path d="M385.57 277.68H325.22C324.94 277.68 324.72 277.46 324.72 277.18C324.72 276.9 324.94 276.68 325.22 276.68H385.57C385.85 276.68 386.07 276.9 386.07 277.18C386.07 277.46 385.85 277.68 385.57 277.68Z" fill="white"/>
<path d="M88.65 309.97H0.5C0.22 309.97 0 309.75 0 309.47C0 309.19 0.22 308.97 0.5 308.97H88.65C88.93 308.97 89.15 309.19 89.15 309.47C89.15 309.75 88.93 309.97 88.65 309.97Z" fill="white"/>
<path d="M202.62 277.68H111.4C111.12 277.68 110.9 277.46 110.9 277.18C110.9 276.9 111.12 276.68 111.4 276.68H202.62C202.9 276.68 203.12 276.9 203.12 277.18C203.12 277.46 202.9 277.68 202.62 277.68Z" fill="white"/>
<path d="M147.56 332H111.36C111.08 332 110.86 331.78 110.86 331.5C110.86 331.22 111.08 331 111.36 331H147.56C147.84 331 148.06 331.22 148.06 331.5C148.06 331.78 147.84 332 147.56 332Z" fill="white"/>
<path d="M1228.52 292.61H1162.78V293.61H1228.52V292.61Z" fill="white"/>
<path d="M1430.86 346.23H1342.71V347.23H1430.86V346.23Z" fill="white"/>
<path d="M373.09 70.36C372.98 70.36 372.87 70.32 372.77 70.25C372.13 69.73 371.07 68.97 369.64 68.35C368.08 67.67 366.42 67.29 364.71 67.23C364.43 67.22 364.22 66.99 364.23 66.71C364.24 66.43 364.47 66.24 364.75 66.23C366.58 66.3 368.36 66.71 370.04 67.44C371.12 67.91 372.12 68.49 373.02 69.18C374.31 67.7 375.84 66.46 377.56 65.49C379.37 64.47 381.35 63.79 383.45 63.46C383.72 63.43 383.98 63.6 384.02 63.88C384.06 64.15 383.88 64.41 383.6 64.45C381.62 64.76 379.75 65.4 378.04 66.36C376.28 67.35 374.74 68.64 373.46 70.19C373.36 70.31 373.22 70.37 373.07 70.37L373.09 70.36Z" fill="white"/>
<path d="M1048.92 111.2C1048.81 111.2 1048.7 111.16 1048.6 111.09C1047.66 110.32 1046.61 109.69 1045.47 109.19C1043.91 108.51 1042.25 108.13 1040.54 108.07C1040.26 108.06 1040.05 107.83 1040.06 107.55C1040.07 107.27 1040.32 107.07 1040.58 107.07C1042.42 107.14 1044.2 107.55 1045.87 108.28C1046.94 108.75 1047.94 109.33 1048.85 110.02C1050.13 108.56 1051.69 107.29 1053.38 106.33C1055.19 105.31 1057.18 104.62 1059.28 104.3C1059.55 104.26 1059.81 104.45 1059.85 104.72C1059.89 104.99 1059.71 105.25 1059.43 105.29C1057.45 105.6 1055.58 106.24 1053.87 107.2C1051.68 108.44 1050.17 109.97 1049.3 111.03C1049.2 111.15 1049.06 111.21 1048.91 111.21L1048.92 111.2Z" fill="white"/>
<path d="M407.66 85.5801C407.55 85.5801 407.44 85.5401 407.34 85.4701C406.41 84.7101 405.36 84.0701 404.21 83.5701C402.65 82.8901 400.99 82.5101 399.28 82.4501C399 82.4401 398.79 82.2101 398.8 81.9301C398.81 81.6501 399.06 81.4601 399.32 81.4501C401.15 81.5201 402.93 81.9201 404.61 82.6601C405.69 83.1301 406.68 83.7101 407.59 84.4001C408.88 82.9201 410.41 81.6801 412.13 80.7101C413.94 79.6901 415.92 79.0001 418.02 78.6801C418.3 78.6401 418.55 78.8301 418.59 79.1001C418.63 79.3701 418.45 79.6301 418.17 79.6701C416.19 79.9801 414.32 80.6201 412.61 81.5801C410.85 82.5701 409.31 83.8601 408.03 85.4101C407.93 85.5301 407.79 85.5901 407.65 85.5901L407.66 85.5801Z" fill="white"/>
<path d="M1316.74 45.9002C1316.62 45.9002 1316.51 45.8602 1316.42 45.7902C1315.79 45.2702 1314.73 44.5102 1313.3 43.8902C1311.73 43.2102 1310.08 42.8302 1308.37 42.7702C1308.09 42.7602 1307.88 42.5302 1307.89 42.2502C1307.9 41.9702 1308.16 41.7702 1308.41 41.7702C1310.24 41.8402 1312.02 42.2502 1313.7 42.9802C1314.78 43.4502 1315.78 44.0302 1316.67 44.7202C1317.95 43.2602 1319.51 41.9902 1321.21 41.0302C1323.02 40.0102 1325 39.3302 1327.1 39.0002C1327.37 38.9602 1327.63 39.1402 1327.67 39.4202C1327.71 39.6902 1327.53 39.9502 1327.25 39.9902C1325.27 40.3002 1323.4 40.9402 1321.7 41.9002C1319.96 42.8802 1318.38 44.2002 1317.12 45.7302C1317.04 45.8302 1316.91 45.9002 1316.78 45.9102C1316.76 45.9102 1316.75 45.9102 1316.73 45.9102L1316.74 45.9002Z" fill="white"/>
<path d="M1082.16 255.65H1081.16V224.19L1078.08 219.24L1078.65 219.02C1089.89 214.77 1101.6 212.32 1113.44 211.75C1118.29 211.51 1131.27 211.37 1146.99 215.09C1150.37 215.89 1153.75 216.84 1157.06 217.92L1157.58 218.09L1157.36 218.6C1156.54 220.46 1155.73 222.31 1154.89 224.15V255.65H1153.89V223.94L1153.93 223.84C1154.7 222.14 1155.46 220.43 1156.21 218.71C1153.1 217.71 1149.92 216.82 1146.75 216.07C1131.16 212.38 1118.28 212.52 1113.48 212.76C1101.94 213.32 1090.53 215.67 1079.56 219.76L1082.14 223.92V255.67L1082.16 255.65Z" fill="white"/>
<path d="M1115.22 255.75C1114.64 253.04 1114.31 250.38 1114.25 247.82C1114.18 245.63 1114.3 243.35 1115.61 241.51C1115.92 241.06 1116.77 239.86 1117.99 239.91C1119.19 239.98 1119.91 241.23 1120.3 241.9C1121.47 243.96 1121.45 246.18 1121.44 247.02C1121.42 249.67 1121.14 252.52 1120.56 255.72L1119.58 255.54C1120.14 252.39 1120.43 249.6 1120.44 247.01C1120.44 246.25 1120.47 244.22 1119.43 242.4C1119.14 241.89 1118.6 240.95 1117.94 240.91C1117.26 240.91 1116.64 241.79 1116.43 242.09C1115.29 243.69 1115.19 245.78 1115.25 247.8C1115.31 250.29 1115.63 252.9 1116.2 255.54L1115.22 255.75Z" fill="white"/>
<path d="M1125.95 255.75C1125.37 253.05 1125.05 250.38 1124.98 247.82C1124.91 245.76 1125.01 243.4 1126.33 241.51C1126.64 241.06 1127.47 239.82 1128.71 239.91C1129.95 239.98 1130.7 241.33 1131.02 241.91C1132.17 243.93 1132.17 246.09 1132.17 247.02C1132.14 249.71 1131.84 252.63 1131.28 255.72L1130.3 255.54C1130.84 252.5 1131.14 249.63 1131.17 247.01C1131.17 246.17 1131.17 244.19 1130.15 242.4C1129.91 241.96 1129.34 240.95 1128.66 240.91C1127.96 240.91 1127.36 241.79 1127.15 242.09C1126 243.73 1125.91 245.9 1125.98 247.79C1126.04 250.29 1126.36 252.89 1126.93 255.54L1125.95 255.75Z" fill="white"/>
<path d="M1104.73 255.75C1104.15 253.05 1103.83 250.38 1103.76 247.82C1103.69 245.64 1103.81 243.37 1105.12 241.51C1105.43 241.06 1106.26 239.82 1107.5 239.91C1108.71 239.98 1109.42 241.23 1109.81 241.9C1110.99 243.96 1110.97 246.18 1110.96 247.02C1110.93 249.69 1110.64 252.62 1110.08 255.72L1109.1 255.54C1109.65 252.49 1109.94 249.62 1109.96 247.01C1109.96 246.25 1109.99 244.23 1108.95 242.4C1108.66 241.89 1108.12 240.95 1107.46 240.91C1106.79 240.91 1106.16 241.79 1105.95 242.09C1104.81 243.71 1104.71 245.79 1104.77 247.8C1104.84 250.3 1105.15 252.9 1105.72 255.54L1104.74 255.75H1104.73Z" fill="white"/>
<path d="M1105.66 213.25V205.14L1105.92 205C1106.35 204.77 1106.88 204.48 1107.51 204.19C1110.76 202.69 1114.22 201.91 1117.79 201.88C1121.45 201.81 1125.18 202.64 1128.54 204.2C1129.09 204.45 1129.61 204.71 1130.13 205L1130.39 205.14V213.25L1129.83 213.18C1129.32 213.12 1128.83 213.06 1128.32 213.01C1124.95 212.67 1121.74 212.49 1118.5 212.48C1114.89 212.46 1111.27 212.65 1107.73 213.02C1107.22 213.06 1106.72 213.12 1106.22 213.18L1105.66 213.25ZM1106.66 205.73V212.12C1106.98 212.08 1107.31 212.05 1107.64 212.02C1111.21 211.64 1114.89 211.46 1118.52 211.47C1121.79 211.49 1125.04 211.66 1128.44 212.01C1128.77 212.04 1129.09 212.08 1129.41 212.12V205.73C1129 205.51 1128.58 205.3 1128.15 205.11C1124.92 203.62 1121.32 202.85 1117.82 202.88C1114.39 202.91 1111.06 203.65 1107.94 205.1C1107.45 205.32 1107.03 205.54 1106.67 205.73H1106.66Z" fill="white"/>
<path d="M1128.9 205.45L1128.12 205.1C1125.89 204.06 1122.3 202.8 1117.8 202.87C1114.41 202.9 1111.08 203.65 1107.92 205.09L1107.14 205.45L1107.21 204.6C1107.69 198.94 1112.34 194.67 1118.03 194.67C1120.92 194.67 1123.64 195.8 1125.69 197.84C1127.51 199.66 1128.62 202.06 1128.83 204.6L1128.9 205.46V205.45ZM1118.03 201.87C1122.09 201.87 1125.43 202.86 1127.73 203.83C1127.4 201.86 1126.44 200 1124.99 198.54C1123.13 196.68 1120.66 195.66 1118.03 195.66C1113.16 195.66 1109.12 199.11 1108.32 203.82C1111.36 202.55 1114.55 201.89 1117.79 201.87C1117.87 201.87 1117.95 201.87 1118.03 201.87Z" fill="white"/>
<path d="M1118.53 190.15H1117.53V195.33H1118.53V190.15Z" fill="white"/>
<path d="M1265.79 229.83H1248.45V209.28C1248.45 204.5 1252.34 200.61 1257.12 200.61C1259.43 200.61 1261.61 201.51 1263.25 203.15C1264.89 204.8 1265.79 206.98 1265.79 209.28V229.83ZM1249.45 228.83H1264.79V209.28C1264.79 207.24 1263.99 205.31 1262.55 203.85C1261.1 202.4 1259.17 201.61 1257.12 201.61C1252.89 201.61 1249.45 205.05 1249.45 209.28V228.83Z" fill="white"/>
<path d="M1304.35 229.83H1209.89V202.84H1185.79L1189.46 185.1H1220.06C1220.64 184.53 1221.25 183.91 1221.93 183.19L1222.08 183.03H1231.62V184.03H1222.52C1221.84 184.76 1221.21 185.39 1220.62 185.96L1220.47 186.1H1190.28L1187.03 201.84H1210.91V228.83H1303.37V201.84H1327.24L1323.99 186.1H1291.53L1291.39 185.96C1290.76 185.36 1290.14 184.72 1289.5 184.03H1275.84V183.03H1289.94L1290.09 183.19C1290.72 183.88 1291.33 184.51 1291.94 185.1H1324.81L1328.48 202.84H1304.39V229.83H1304.35Z" fill="white"/>
<path d="M1295.89 217.61H1280.89V203.44H1295.89V217.61ZM1281.89 216.61H1294.89V204.44H1281.89V216.61Z" fill="white"/>
<path d="M1231.93 217.61H1216.94V203.44H1231.93V217.61ZM1217.94 216.61H1230.93V204.44H1217.94V216.61Z" fill="white"/>
<path d="M1179.97 254.85L1179.01 254.59L1186.03 228.83H1328.21L1335.22 254.59L1334.26 254.85L1327.45 229.83H1186.79L1179.97 254.85Z" fill="white"/>
<path d="M1272.49 184.1V183.1L1282.14 183.03V176.92H1284.45C1285.56 176.87 1287.75 176.56 1289.7 174.98C1290.4 174.42 1291.01 173.74 1291.49 172.98C1290.24 173.39 1288.5 173.73 1286.47 173.44C1285 173.23 1283.6 172.73 1282.32 171.96H1277.43V163.52H1279.86C1280.97 163.47 1283.15 163.16 1285.12 161.58C1285.83 161.01 1286.42 160.33 1286.9 159.57C1285.7 159.96 1283.93 160.32 1281.89 160.04C1280.04 159.77 1278.62 159.1 1277.73 158.55H1273.3V150.11H1277.57C1278.68 150.06 1280.86 149.75 1282.83 148.17C1283.64 147.52 1284.21 146.81 1284.62 146.17C1283.37 146.58 1281.61 146.92 1279.6 146.64C1278.13 146.44 1276.73 145.94 1275.44 145.16H1270.4V136.72H1274.51C1276.49 136.61 1278.32 135.94 1279.77 134.78C1280.47 134.22 1281.06 133.55 1281.55 132.78C1280.3 133.19 1278.55 133.53 1276.53 133.25C1274.69 132.99 1273.27 132.31 1272.38 131.77H1267.76V123.33H1271.75C1272.86 123.28 1275.04 122.97 1277.01 121.4C1277.71 120.83 1278.31 120.15 1278.79 119.39C1277.54 119.8 1275.8 120.14 1273.76 119.85C1271.92 119.59 1270.51 118.91 1269.61 118.36H1265.3V109.92H1268.99C1270.1 109.87 1272.29 109.56 1274.25 107.99C1275.05 107.34 1275.62 106.63 1276.03 105.99C1274.39 106.53 1272.67 106.69 1271 106.45C1269.54 106.25 1268.15 105.75 1266.85 104.97H1262.66V96.2498L1257.16 90.5298L1251.66 96.2498V104.97H1247.47C1246.12 105.76 1244.76 106.25 1243.31 106.45C1241.35 106.73 1239.62 106.43 1238.29 105.99C1238.77 106.75 1239.37 107.42 1240.08 107.99C1242.03 109.56 1244.22 109.88 1245.36 109.92H1249.03V118.36H1244.71C1243.43 119.13 1242.03 119.63 1240.55 119.85C1238.53 120.13 1236.78 119.79 1235.53 119.38C1236.01 120.14 1236.61 120.82 1237.32 121.39C1239.36 123.02 1241.69 123.28 1242.6 123.32H1246.56V131.76H1241.96C1240.68 132.53 1239.28 133.03 1237.8 133.24C1235.82 133.51 1234.1 133.21 1232.77 132.77C1233.18 133.42 1233.76 134.13 1234.56 134.77C1236 135.93 1237.83 136.61 1239.83 136.71H1243.91V145.15H1238.88C1237.59 145.93 1236.19 146.42 1234.72 146.63C1233.05 146.86 1231.33 146.7 1229.69 146.16C1230.1 146.8 1230.68 147.51 1231.48 148.16C1233.44 149.74 1235.63 150.06 1236.76 150.1H1241V158.54H1236.58C1235.3 159.31 1233.9 159.81 1232.42 160.03C1230.39 160.31 1228.64 159.98 1227.4 159.56C1227.8 160.18 1228.37 160.91 1229.19 161.57C1231.15 163.14 1233.33 163.46 1234.47 163.5H1236.87V171.94H1231.98C1231.08 172.49 1229.66 173.16 1227.82 173.42C1225.81 173.7 1224.05 173.37 1222.8 172.95C1223.21 173.6 1223.79 174.31 1224.58 174.95C1226.54 176.53 1228.74 176.85 1229.87 176.89H1232.17V183.5H1231.17V177.89H1229.85C1228.57 177.84 1226.14 177.48 1223.96 175.72C1222.48 174.52 1221.68 173.13 1221.27 172.17L1220.75 170.96L1221.94 171.53C1222.97 172.02 1225.08 172.78 1227.68 172.42C1229.43 172.17 1230.76 171.51 1231.57 171L1231.69 170.92H1235.86V164.48H1234.44C1233.17 164.43 1230.74 164.08 1228.56 162.32C1226.97 161.03 1226.19 159.54 1225.87 158.76L1225.37 157.55L1226.55 158.12C1227.57 158.61 1229.67 159.37 1232.28 159.01C1233.67 158.81 1234.98 158.33 1236.17 157.59L1236.29 157.51H1239.99V151.07H1236.73C1235.45 151.02 1233.03 150.66 1230.85 148.9C1229.36 147.7 1228.56 146.32 1228.15 145.36L1227.64 144.17L1228.82 144.71C1230.66 145.56 1232.65 145.87 1234.57 145.6C1235.95 145.41 1237.26 144.93 1238.47 144.19L1238.59 144.11H1242.9V137.67H1239.79C1237.54 137.55 1235.52 136.8 1233.92 135.51C1232.43 134.31 1231.63 132.92 1231.22 131.96L1230.71 130.75L1231.9 131.31C1233.17 131.9 1235.19 132.54 1237.65 132.2C1239.04 132 1240.35 131.52 1241.54 130.78L1241.66 130.7H1245.54V124.26H1242.56C1241.29 124.21 1238.87 123.85 1236.68 122.11C1235.51 121.16 1234.58 119.93 1233.99 118.55L1233.47 117.34L1234.66 117.91C1235.69 118.4 1237.8 119.16 1240.4 118.8C1241.79 118.6 1243.1 118.12 1244.3 117.38L1244.42 117.3H1248.02V110.86H1245.33C1244.05 110.81 1241.62 110.46 1239.45 108.71C1238.28 107.76 1237.37 106.57 1236.76 105.17L1236.23 103.96L1237.43 104.52C1238.71 105.11 1240.74 105.75 1243.18 105.4C1244.54 105.21 1245.81 104.75 1247.08 103.99L1247.2 103.92H1250.67V95.7898L1257.17 89.0298L1263.67 95.7898V103.92H1267.14L1267.26 103.99C1268.47 104.74 1269.78 105.21 1271.15 105.4C1273.08 105.67 1275.07 105.37 1276.9 104.52L1278.08 103.97L1277.57 105.17C1276.99 106.54 1276.06 107.76 1274.89 108.72C1272.7 110.47 1270.28 110.82 1269.02 110.88H1266.31V117.32H1269.9L1270.02 117.4C1270.83 117.91 1272.16 118.57 1273.9 118.82C1276.52 119.18 1278.63 118.42 1279.64 117.93L1280.84 117.35L1280.32 118.57C1279.73 119.95 1278.8 121.18 1277.64 122.13C1275.45 123.88 1273.02 124.23 1271.78 124.29H1268.77V130.73H1272.68L1272.8 130.81C1273.61 131.32 1274.94 131.98 1276.68 132.23C1279.29 132.59 1281.4 131.83 1282.42 131.34L1283.63 130.76L1283.09 131.99C1282.47 133.41 1281.56 134.6 1280.41 135.53C1278.79 136.83 1276.77 137.57 1274.55 137.69H1271.41V144.13H1275.73L1275.85 144.21C1277.06 144.96 1278.37 145.43 1279.75 145.62C1282.34 145.98 1284.45 145.22 1285.48 144.74L1286.65 144.19L1286.15 145.38C1285.76 146.33 1284.97 147.71 1283.47 148.92C1281.28 150.68 1278.86 151.03 1277.61 151.08H1274.32V157.52H1278.03L1278.15 157.6C1278.96 158.11 1280.29 158.77 1282.04 159.02C1284.77 159.4 1286.95 158.52 1287.76 158.13L1288.96 157.55L1288.43 158.78C1287.83 160.19 1286.93 161.38 1285.75 162.33C1283.56 164.08 1281.14 164.43 1279.89 164.49H1278.44V170.93H1282.61L1282.73 171.01C1283.93 171.75 1285.24 172.23 1286.62 172.43C1289.25 172.8 1291.35 172.03 1292.36 171.54L1293.56 170.96L1293.04 172.18C1292.45 173.56 1291.52 174.79 1290.34 175.73C1288.16 177.49 1285.73 177.84 1284.48 177.89H1283.15V183.99L1272.5 184.07L1272.49 184.1Z" fill="white"/>
<path d="M1257.62 82.75H1256.62V89.79H1257.62V82.75Z" fill="white"/>
<path d="M1032.08 255.3C1031.8 255.3 1031.58 255.08 1031.58 254.8V244.24C1031.58 243.42 1032.25 242.75 1033.07 242.75H1043.36C1043.9 242.75 1044.39 243.03 1044.66 243.5C1045.17 244.4 1045.76 245.2 1046.41 245.88C1046.79 246.28 1047.14 246.6 1047.45 246.87C1048.15 247.5 1048.7 247.99 1048.91 248.87C1049.09 249.59 1048.97 250.38 1048.57 251.23C1048.36 251.67 1047.96 251.97 1047.48 252.05C1046.67 252.19 1045.67 252.38 1044.54 252.58C1043.23 252.83 1042.91 252.9 1042.65 253.14C1042.23 253.53 1042.12 254.18 1042.11 254.66C1042.11 254.94 1041.88 255.19 1041.6 255.15C1041.32 255.15 1041.11 254.91 1041.11 254.64C1041.14 253.68 1041.43 252.91 1041.97 252.41C1042.45 251.96 1042.97 251.87 1044.36 251.6C1045.49 251.39 1046.49 251.21 1047.31 251.06C1047.47 251.03 1047.6 250.94 1047.67 250.79C1047.97 250.16 1048.06 249.59 1047.94 249.1C1047.8 248.52 1047.42 248.18 1046.78 247.61C1046.45 247.32 1046.09 246.99 1045.69 246.56C1044.99 245.82 1044.35 244.96 1043.8 243.99C1043.71 243.83 1043.55 243.74 1043.36 243.74H1033.07C1032.8 243.74 1032.58 243.96 1032.58 244.23V254.79C1032.58 255.07 1032.36 255.29 1032.08 255.29V255.3Z" fill="white"/>
<path d="M1021.86 255.3H1021.85C1021.57 255.3 1021.35 255.06 1021.36 254.79C1021.38 253.96 1021.61 253.22 1022.05 252.61C1022.85 251.48 1024.27 250.84 1025.77 250.97C1025.92 250.98 1026.06 250.93 1026.16 250.84C1026.26 250.75 1026.31 250.63 1026.31 250.51C1026.32 249.09 1026.13 247.7 1025.75 246.4C1025.23 244.64 1024.54 243.57 1023.87 242.54C1023.07 241.3 1022.31 240.13 1022.18 238.11C1022.07 235.9 1022.48 234 1023.42 232.42C1023.73 231.9 1024.01 231.56 1024.25 231.26C1024.52 230.93 1024.75 230.65 1024.98 230.19C1025.62 228.91 1025.71 227.35 1025.24 225.54C1025.2 225.42 1025.11 225.3 1024.99 225.24L1024.15 224.83C1023.7 224.61 1023.24 224.38 1022.8 224.16C1022.51 224.02 1022.28 223.8 1022.15 223.53C1022.03 223.29 1021.93 223.04 1021.87 222.79V222.68C1021.7 222.03 1022.16 221.26 1022.92 221.05L1023.45 220.9C1023.68 220.83 1023.86 220.79 1023.89 220.78L1024.09 220.72C1024.49 220.61 1024.89 220.49 1025.3 220.39C1025.38 220.37 1025.46 220.32 1025.51 220.26C1025.56 220.2 1025.63 220.11 1025.66 219.98C1025.72 219.83 1025.72 219.71 1025.72 219.57C1025.72 219.49 1025.67 219.4 1025.58 219.32L1022.68 216.42C1022.2 215.93 1022.11 215.21 1022.44 214.63C1022.62 214.31 1022.83 214.02 1023.05 213.77C1023.45 213.32 1023.9 212.96 1024.39 212.7C1024.99 212.36 1025.75 212.49 1026.21 213.02C1027.15 214.08 1028.45 215.54 1029.75 215.69C1030.22 215.74 1030.64 215.75 1031.05 215.76C1032.22 215.79 1033.33 215.82 1034.58 216.77C1034.68 216.85 1034.78 216.93 1034.88 217.01C1037.34 215.44 1038.59 213.78 1038.73 212.8C1038.84 212.08 1038.73 211.41 1038.73 211.41C1038.62 210.74 1038.36 210.12 1037.94 209.54L1036.32 207.3L1038.62 208.82C1038.98 209.06 1039.28 209.32 1039.54 209.62C1040.15 210.3 1040.46 211.06 1040.62 211.7C1040.84 211.44 1041.05 211.18 1041.24 210.9C1042.13 209.66 1042.74 208.25 1043.06 206.69L1043.92 202.52L1044.05 206.78C1044.08 207.79 1043.98 208.71 1043.74 209.59C1043.23 211.54 1041.61 213.57 1041.54 213.65C1039.84 215.76 1037.54 217.47 1036.09 218.44C1036.65 219.36 1036.95 220.43 1036.95 221.5V229.89C1036.95 230.16 1037.17 230.38 1037.44 230.38H1043.74C1044.23 230.38 1044.72 230.38 1045.22 230.36C1048.7 230.3 1052.3 230.24 1055.13 232.86C1056.3 233.94 1057.13 235.42 1057.48 237.02C1057.59 237.5 1057.66 238 1057.68 238.53C1057.73 239.75 1057.47 240.91 1057.21 242.03C1056.96 243.11 1056.73 244.12 1056.75 245.19C1056.77 246.23 1056.86 247 1056.96 247.81C1057.09 248.91 1057.23 250.05 1057.18 251.92C1057.16 252.84 1057.09 253.79 1056.96 254.74C1056.92 255.01 1056.68 255.2 1056.4 255.17C1056.13 255.13 1055.93 254.88 1055.97 254.61C1056.09 253.7 1056.16 252.78 1056.18 251.89C1056.23 250.09 1056.1 248.99 1055.97 247.92C1055.87 247.13 1055.77 246.31 1055.75 245.22C1055.72 244.02 1055.98 242.89 1056.23 241.8C1056.48 240.69 1056.73 239.65 1056.68 238.56C1056.66 238.09 1056.6 237.65 1056.5 237.23C1056.2 235.82 1055.47 234.53 1054.45 233.58C1051.91 231.24 1048.52 231.3 1045.24 231.34C1044.74 231.34 1044.24 231.36 1043.74 231.36H1037.44C1036.62 231.36 1035.95 230.69 1035.95 229.87V221.48C1035.95 220.45 1035.61 219.42 1034.99 218.58L1034.74 218.25L1034.46 217.97C1034.31 217.81 1034.14 217.68 1033.97 217.54C1032.98 216.79 1032.11 216.77 1031.01 216.74C1030.58 216.73 1030.12 216.72 1029.62 216.66C1027.94 216.47 1026.5 214.85 1025.44 213.66C1025.29 213.49 1025.05 213.45 1024.86 213.55C1024.47 213.77 1024.11 214.06 1023.78 214.41C1023.61 214.61 1023.45 214.84 1023.29 215.11C1023.18 215.3 1023.22 215.54 1023.37 215.7L1026.25 218.58C1026.5 218.81 1026.66 219.14 1026.69 219.51C1026.69 219.74 1026.69 220 1026.58 220.29C1026.52 220.5 1026.39 220.72 1026.22 220.91C1026.04 221.12 1025.79 221.27 1025.51 221.34C1025.11 221.44 1024.72 221.55 1024.33 221.67L1024.09 221.74C1024.02 221.76 1023.87 221.8 1023.68 221.85L1023.15 222C1022.91 222.07 1022.76 222.32 1022.81 222.56V222.62C1022.86 222.78 1022.92 222.93 1023 223.09C1023.04 223.17 1023.11 223.23 1023.2 223.28C1023.66 223.51 1024.11 223.73 1024.56 223.95L1025.39 224.36C1025.76 224.53 1026.04 224.87 1026.17 225.29C1026.7 227.36 1026.59 229.15 1025.84 230.65C1025.56 231.22 1025.28 231.56 1024.99 231.91C1024.76 232.19 1024.51 232.49 1024.24 232.94C1023.41 234.35 1023.04 236.06 1023.14 238.01C1023.26 239.82 1023.88 240.79 1024.68 242.01C1025.35 243.05 1026.12 244.24 1026.68 246.13C1027.09 247.53 1027.29 249.01 1027.28 250.53C1027.28 250.93 1027.11 251.31 1026.81 251.59C1026.5 251.88 1026.08 252.03 1025.66 251.99C1024.52 251.91 1023.44 252.37 1022.84 253.22C1022.52 253.67 1022.35 254.22 1022.34 254.85C1022.34 255.12 1022.11 255.34 1021.84 255.34L1021.86 255.3ZM1039.77 212.57C1039.77 212.68 1039.75 212.8 1039.73 212.92C1039.6 213.75 1039.03 214.71 1038.12 215.66C1039.04 214.89 1039.98 213.99 1040.78 212.99C1040.78 212.99 1040.79 212.97 1040.82 212.95C1040.76 213.01 1040.7 213.07 1040.64 213.13L1039.84 213.89L1039.8 212.79C1039.8 212.73 1039.8 212.66 1039.79 212.58L1039.77 212.57Z" fill="white"/>
<path d="M1031.17 219.94C1030.96 219.94 1030.73 219.91 1030.5 219.83C1029.99 219.67 1029.53 219.31 1029.21 218.83L1028.98 218.47L1029.29 218.18C1029.72 217.79 1030.25 217.56 1030.79 217.52C1032.13 217.44 1032.92 218.56 1032.95 218.61L1033.2 218.97L1032.88 219.26C1032.88 219.26 1032.14 219.93 1031.17 219.93V219.94ZM1030.38 218.65C1030.5 218.74 1030.64 218.82 1030.8 218.88C1031.15 218.99 1031.49 218.92 1031.74 218.81C1031.52 218.65 1031.22 218.5 1030.85 218.53C1030.67 218.53 1030.51 218.59 1030.38 218.65Z" fill="white"/>
<path d="M1079.54 55.68H757.48C757.2 55.68 756.98 55.46 756.98 55.18C756.98 54.93 757.16 54.71 757.4 54.67C764.01 53.61 770.93 52.75 777.94 52.13C782.44 51.72 787.11 51.42 791.85 51.22C792.92 48.36 795.63 46.47 798.71 46.47C799.71 46.47 800.65 46.66 801.52 47.03C805.66 36.81 815.76 29.98 826.82 29.98C835.35 29.98 843.2 33.84 848.43 40.57C849.49 40.15 850.62 39.94 851.8 39.94C855.23 39.94 858.37 41.85 859.99 44.8C864.89 30.99 877.84 21.79 892.61 21.79C901.42 21.79 909.79 25.09 916.21 31.1C916.27 31.1 916.32 31.1 916.38 31.1C920.72 31.1 924.26 34.63 924.26 38.98C924.26 39.16 924.26 39.34 924.24 39.51C925.05 39.41 925.87 39.35 926.7 39.35C931.15 39.35 935.48 40.86 938.94 43.62C940.39 42.21 942.36 41.41 944.41 41.41C946.66 41.41 948.77 42.35 950.27 44.01C953.41 42.01 957.04 40.96 960.79 40.96C966.83 40.96 972.41 43.66 976.19 48.38C978.88 45.52 982.62 43.9 986.57 43.9C988.98 43.9 991.34 44.51 993.42 45.66C996.52 44.09 999.86 43.29 1003.38 43.29C1009.37 43.29 1014.96 45.63 1019.14 49.89C1027.5 49.92 1035.94 50.22 1044.23 50.76C1056.02 51.54 1067.93 52.85 1079.62 54.66C1079.88 54.7 1080.06 54.93 1080.04 55.19C1080.02 55.45 1079.8 55.65 1079.54 55.65V55.68ZM764.15 54.68H1072.67C1063.21 53.38 1053.65 52.4 1044.16 51.78C1035.82 51.23 1027.33 50.94 1018.92 50.91C1018.79 50.91 1018.66 50.85 1018.56 50.76C1014.55 46.6 1009.15 44.32 1003.37 44.32C999.93 44.32 996.65 45.12 993.63 46.7C993.48 46.78 993.3 46.78 993.15 46.69C991.17 45.54 988.89 44.93 986.57 44.93C982.71 44.93 979.06 46.6 976.54 49.52C976.44 49.63 976.29 49.7 976.14 49.69C975.99 49.69 975.85 49.61 975.76 49.49C972.18 44.72 966.72 41.99 960.79 41.99C957.08 41.99 953.51 43.07 950.45 45.11C950.23 45.25 949.95 45.21 949.78 45.01C948.46 43.37 946.5 42.43 944.41 42.43C942.48 42.43 940.63 43.24 939.35 44.66C939.17 44.86 938.87 44.88 938.66 44.71C935.33 41.91 931.08 40.37 926.7 40.37C925.7 40.37 924.71 40.45 923.75 40.61C923.59 40.64 923.43 40.58 923.31 40.47C923.2 40.35 923.14 40.19 923.17 40.03C923.22 39.72 923.25 39.37 923.25 39C923.25 35.2 920.18 32.09 916.34 32.12C916.24 32.12 916.14 32.12 916.05 32.12C915.9 32.13 915.77 32.08 915.67 31.98C909.42 26.06 901.23 22.8 892.6 22.8C877.84 22.8 864.96 32.25 860.53 46.31C860.47 46.51 860.28 46.65 860.07 46.66C859.87 46.67 859.66 46.54 859.59 46.34C858.38 43.12 855.25 40.95 851.8 40.95C850.62 40.95 849.5 41.18 848.47 41.64C848.26 41.74 848.01 41.67 847.87 41.48C842.84 34.8 835.16 30.97 826.82 30.97C815.99 30.97 806.12 37.76 802.25 47.88C802.2 48.01 802.09 48.12 801.96 48.17C801.83 48.22 801.68 48.21 801.55 48.14C800.69 47.68 799.73 47.45 798.7 47.45C795.94 47.45 793.52 49.21 792.68 51.84C792.62 52.04 792.43 52.18 792.22 52.19C787.39 52.38 782.61 52.69 778.02 53.11C773.32 53.53 768.68 54.05 764.13 54.67L764.15 54.68Z" fill="white"/>
<path d="M455.93 23.0602H408.53C408.25 23.0602 408.03 22.8402 408.03 22.5602C408.03 18.2302 411.49 14.7702 415.75 14.7702C416.53 14.7702 417.3 14.8902 418.05 15.1202C418.13 11.7902 420.86 9.11023 424.21 9.11023C425.51 9.11023 426.75 9.51023 427.78 10.2502C428.64 4.43023 433.69 -0.00976562 439.67 -0.00976562C446.19 -0.00976562 451.69 5.50023 451.69 12.0102C451.69 13.0902 451.54 14.1602 451.26 15.2002C454.27 16.2802 456.35 19.1402 456.4 22.3502C456.41 22.3902 456.42 22.4402 456.42 22.4802V22.5502C456.42 22.8302 456.2 23.0502 455.92 23.0502L455.93 23.0602ZM409.04 22.0602H455.39C455.21 19.2502 453.25 16.8002 450.51 16.0202C450.38 15.9802 450.27 15.9002 450.21 15.7802C450.15 15.6602 450.13 15.5202 450.17 15.3902C450.52 14.3002 450.7 13.1702 450.7 12.0302C450.7 6.06023 445.65 1.01023 439.68 1.01023C433.71 1.01023 429.07 5.53023 428.68 11.2902C428.67 11.4902 428.54 11.6602 428.36 11.7202C428.18 11.7802 427.97 11.7502 427.83 11.6102C426.87 10.6502 425.58 10.1202 424.21 10.1202C421.36 10.1202 419.05 12.4402 419.05 15.2802C419.05 15.4502 419.07 15.6102 419.08 15.7802C419.1 15.9602 419.02 16.1402 418.88 16.2402C418.74 16.3402 418.55 16.3802 418.39 16.3102C417.54 15.9502 416.65 15.7702 415.75 15.7702C412.19 15.7702 409.26 18.5502 409.04 22.0602Z" fill="white"/>
</g>
<defs>
<clipPath id="clip0_280_16">
<rect width="1430.86" height="359.49" fill="white"/>
</clipPath>
</defs>
</svg>
