<svg width="97" height="92" viewBox="0 0 97 92" fill="none" xmlns="http://www.w3.org/2000/svg">
<g clip-path="url(#clip0_199_114)">
<path d="M96.2642 64.5751C96.1763 64.4211 95.4005 63.0596 93.881 62.2167C90.3782 60.2717 85.1959 63.092 82.4128 64.5994L82.1649 64.7372C80.5974 65.5881 72.4961 69.9077 66.602 71.6906C65.8743 71.9095 65.2585 72.0715 64.4587 72.2012C64.4987 71.2368 64.4267 70.2724 64.2028 69.3485C64.0189 68.5705 63.515 66.5039 61.7556 64.8425C60.3881 63.5539 58.8766 63.1001 57.565 62.7759C53.9422 61.8763 50.9672 61.7548 49.6956 61.698H49.5916C43.6896 61.4387 40.7226 61.309 38.1634 60.1501C37.7555 59.9637 37.6196 59.8827 37.1557 59.6071C36.5319 59.2424 35.4923 58.6265 32.8931 57.2164C29.0944 55.1579 28.2627 54.8337 27.351 54.5338C25.0797 53.7883 23.2803 53.6505 20.7771 53.4641C18.9617 53.3263 17.1064 53.302 15.259 53.3668V52.9211C15.259 50.4979 13.3156 48.5286 10.9244 48.5286H4.33457C1.94336 48.5286 0 50.4979 0 52.9211V85.4842C0 87.9074 1.94336 89.8767 4.33457 89.8767H10.9324C13.3236 89.8767 15.267 87.9074 15.267 85.4842V84.1145C19.0097 86.0677 23.7042 88.4179 28.0627 90.3224C28.9504 90.7114 30.438 91.3598 32.5173 91.7245C33.5489 91.9028 34.4846 91.9757 35.3723 91.9757C37.0838 91.9757 38.5873 91.7002 40.1468 91.4246C40.5466 91.3517 40.9545 91.2787 41.3703 91.2058C41.8502 91.1248 45.513 90.8897 51.0632 90.525C52.4867 90.4278 53.7423 90.3549 54.8779 90.2819C59.0125 90.0307 61.7476 89.8605 65.7063 89.2932C68.4174 88.9042 69.689 88.6205 71.1365 88.0856C73.7757 87.1131 75.2152 85.9623 77.0386 84.5035C77.6304 84.0335 78.2702 83.5148 79.0299 82.9475C81.0293 81.4482 83.8603 79.5761 86.5954 77.7689C89.4265 75.8968 92.3535 73.9599 94.5528 72.3147C94.8727 72.0797 95.8484 71.3503 96.4642 70.005C97.2479 68.2868 97.1759 66.204 96.2722 64.5508L96.2642 64.5751ZM93.5611 68.6596C93.2892 69.2513 92.8254 69.5916 92.6574 69.7213C90.5221 71.3097 87.6351 73.2224 84.844 75.0701C82.0689 76.9017 79.2059 78.7981 77.1266 80.3541C76.3348 80.9458 75.663 81.4806 75.0472 81.975C73.3278 83.3527 72.1922 84.2604 70.0329 85.0546C68.9692 85.4517 67.9776 85.703 65.2505 86.1001C61.4277 86.6512 58.8846 86.8052 54.678 87.0645C53.5343 87.1374 52.2788 87.2104 50.8472 87.3076C43.7056 87.7777 41.4183 87.9317 40.8345 88.0289C40.4027 88.1019 39.9868 88.1748 39.5709 88.2558C37.4037 88.6529 35.5243 88.9933 33.0531 88.5557C31.3497 88.2558 30.1261 87.721 29.3183 87.3725C24.4559 85.241 19.1377 82.5342 15.259 80.4919V77.8499C15.259 76.9584 14.5392 76.2291 13.6595 76.2291C12.7798 76.2291 12.06 76.9584 12.06 77.8499V85.5166C12.06 86.1487 11.5482 86.6674 10.9244 86.6674H4.33457C3.71078 86.6674 3.19894 86.1487 3.19894 85.5166V52.9535C3.19894 52.3214 3.71078 51.8027 4.33457 51.8027H10.9324C11.5562 51.8027 12.068 52.3214 12.068 52.9535V70.9207C12.068 71.8122 12.7878 72.5416 13.6675 72.5416C14.5472 72.5416 15.267 71.8122 15.267 70.9207V56.641C17.0424 56.568 18.8098 56.5923 20.5612 56.722C23.0004 56.9084 24.4719 57.0138 26.3833 57.6378C27.1031 57.8728 27.8468 58.1727 31.3976 60.0934C33.9408 61.4711 34.9485 62.0627 35.5483 62.4193C36.0521 62.7192 36.3 62.8651 36.8678 63.1244C39.9868 64.5427 43.1538 64.6804 49.4717 64.9479H49.5676C50.7433 65.0046 53.4944 65.1181 56.8133 65.9366C58.0448 66.2446 58.8526 66.5363 59.5803 67.2252C60.644 68.222 60.9639 69.5592 61.0998 70.1265C61.3078 71.0018 61.3238 71.8122 61.2438 72.493C59.1405 72.5902 56.0455 72.6551 51.0472 72.7442C47.5283 72.8009 44.2734 72.8577 41.3384 72.8982C40.4586 72.9144 39.7469 73.6519 39.7629 74.5434C39.7789 75.4267 40.4906 76.1399 41.3624 76.1399H41.3863C44.3214 76.0994 47.5843 76.0427 51.1031 75.9859C62.8913 75.7833 64.5147 75.7185 67.5217 74.8108C73.7117 72.9387 82.0689 68.4813 83.6844 67.6061L83.9403 67.4683C85.8677 66.4229 90.3782 63.9673 92.3695 65.0694C93.0813 65.4584 93.4892 66.1554 93.4892 66.1554C93.897 66.901 93.937 67.8816 93.5771 68.6596H93.5611Z" fill="#E30000"/>
<path d="M48.456 55.7414C63.619 55.7414 75.9589 43.2364 75.9589 27.8707C75.9589 12.5049 63.619 0 48.456 0C33.293 0 20.9531 12.5049 20.9531 27.8707C20.9531 43.2364 33.293 55.7414 48.456 55.7414ZM48.456 3.24172C61.8596 3.24172 72.76 14.2879 72.76 27.8707C72.76 41.4535 61.8596 52.4996 48.456 52.4996C35.0524 52.4996 24.152 41.4535 24.152 27.8707C24.152 14.2879 35.0524 3.24172 48.456 3.24172Z" fill="#E30000"/>
<path d="M38.9791 13.5343C41.7862 11.6298 45.0571 10.6167 48.456 10.6167C57.8449 10.6167 65.4824 18.3563 65.4824 27.8708C65.4824 31.307 64.4827 34.6298 62.6033 37.4744C62.1075 38.22 62.3074 39.2249 63.0432 39.7274C63.3151 39.9138 63.627 40.0029 63.9309 40.0029C64.4427 40.0029 64.9545 39.7517 65.2584 39.2816C67.4977 35.9021 68.6813 31.9553 68.6813 27.8708C68.6813 16.5734 59.6123 7.375 48.456 7.375C44.4253 7.375 40.5306 8.57444 37.1957 10.8436C36.4599 11.3461 36.268 12.351 36.7559 13.0885C37.2437 13.8341 38.2434 14.0286 38.9791 13.5343Z" fill="#E30000"/>
<path d="M48.456 48.3584C53.1105 48.3584 57.653 46.7132 61.2518 43.7308C61.9316 43.1635 62.0356 42.1424 61.4757 41.4535C60.9159 40.7646 59.9083 40.6593 59.2285 41.2266C56.1975 43.7389 52.3747 45.1166 48.464 45.1166C39.0751 45.1166 31.4377 37.377 31.4377 27.8626C31.4377 23.8915 32.8052 20.0176 35.2764 16.9461C35.8362 16.2491 35.7322 15.228 35.0525 14.6688C34.3647 14.1015 33.357 14.2068 32.8052 14.8957C29.8622 18.5426 28.2387 23.1459 28.2387 27.8626C28.2387 39.16 37.3077 48.3584 48.464 48.3584H48.456Z" fill="#E30000"/>
<path d="M48.456 40.4406C49.3357 40.4406 50.0555 39.7112 50.0555 38.8197V37.1745C52.3427 36.4938 54.3661 34.5001 54.3661 31.8419C54.3661 29.1837 52.5667 27.1252 50.0555 26.4606V22.0843C50.5993 22.4652 50.9352 22.9191 50.9512 22.9515C51.463 23.6809 52.4627 23.8511 53.1824 23.3324C53.9022 22.8137 54.0702 21.8007 53.5583 21.0713C53.2944 20.6904 52.0788 19.11 50.0555 18.5265V16.9219C50.0555 16.0304 49.3357 15.301 48.456 15.301C47.5763 15.301 46.8565 16.0304 46.8565 16.9219V18.559C44.5693 19.2316 42.546 21.2253 42.546 23.8997C42.546 26.5741 44.3694 28.6083 46.8565 29.2728V33.6816C46.2088 33.2439 45.8249 32.6847 45.8249 32.6766C45.337 31.931 44.3454 31.7284 43.6096 32.2228C42.8738 32.7172 42.6739 33.7221 43.1618 34.4677C43.3297 34.7189 44.6173 36.5829 46.8645 37.215V38.8116C46.8645 39.7031 47.5843 40.4325 48.464 40.4325L48.456 40.4406ZM50.0555 33.633V29.9536C50.7273 30.3831 51.1671 31.072 51.1671 31.8419C51.1671 32.6118 50.6793 33.2277 50.0555 33.633ZM45.7449 23.9078C45.7449 23.1298 46.2327 22.5057 46.8565 22.1005V25.788C46.1848 25.3585 45.7449 24.6777 45.7449 23.9078Z" fill="#E30000"/>
</g>
<defs>
<clipPath id="clip0_199_114">
<rect width="97" height="92" fill="white"/>
</clipPath>
</defs>
</svg>
