<svg width="239" height="353" viewBox="0 0 239 353" fill="none" xmlns="http://www.w3.org/2000/svg">
<path d="M25.5899 281.92C56.4909 256.305 81.1151 235.013 99.4626 218.044C117.81 200.754 133.1 182.824 145.331 164.253C157.563 145.683 163.679 127.432 163.679 109.502C163.679 93.1728 159.816 80.3656 152.091 71.0803C144.366 61.795 132.456 57.1524 116.362 57.1524C100.267 57.1524 87.8747 62.5955 79.1838 73.4817C70.4929 84.0476 65.9865 98.6159 65.6646 117.186H0C1.28754 78.7646 12.7145 49.6281 34.2808 29.7769C56.169 9.92563 83.8512 0 117.327 0C154.022 0 182.187 9.76554 201.822 29.2966C221.457 48.5075 231.275 73.9619 231.275 105.66C231.275 130.634 224.515 154.488 210.996 177.22C197.477 199.953 182.026 219.805 164.644 236.774C147.263 253.424 124.57 273.595 96.5657 297.288H239V353H0.482827V303.052L25.5899 281.92Z" fill="white"/>
</svg>
