<svg width="982" height="223" viewBox="0 0 982 223" fill="none" xmlns="http://www.w3.org/2000/svg">
<path d="M126 168C184 142.5 137.5 57.4995 233 94.4998C359.803 143.628 464.557 164.585 567 168C642 170.5 718.5 155 792 132.5" stroke="#2B201A" stroke-width="2" stroke-dasharray="8 8"/>
<path d="M326.5 121C328.5 123 329.5 124.5 330.743 127C330.743 127 331.103 127.64 330.743 128C328.743 130 326.5 131 323 131.5" stroke="#2B201A" stroke-width="2" stroke-linecap="round"/>
<path d="M712.22 147.726C714.844 148.781 716.352 149.769 718.475 151.582C718.475 151.582 719.112 152.055 718.867 152.502C717.5 155 716.5 156 714.5 158" stroke="#2B201A" stroke-width="2" stroke-linecap="round"/>
<path d="M8.78009 102.69C3.24009 112.15 -0.0199085 122.87 9.14918e-05 134.19C0.0900915 187.97 62.4301 211.42 102.65 180.49C113.48 172.16 123.72 163.06 133.27 153.27C143.29 143 147.2 128.81 143.85 114.79C141.27 103.98 134.87 94.33 126.85 86.64C109.92 70.42 85.2501 62.68 62.0901 66.33C40.3401 69.75 19.9301 83.68 8.78009 102.69Z" fill="#FFA179"/>
<path d="M59.296 120.4V115.756H67.972V142H62.788V120.4H59.296Z" fill="white"/>
<path d="M559.672 136.93C557.242 162.19 526.452 180.73 504.722 188.28C479.482 197.04 434.502 200.74 419.442 172.53C411.602 157.84 411.722 136.83 415.532 121.11C420.312 101.38 433.552 79.59 452.592 70.84C483.332 56.72 521.562 76.33 543.302 98.37C554.372 109.6 560.992 123.25 559.682 136.93H559.672Z" fill="#FF5F3C"/>
<path d="M474.492 136.312C476.796 134.392 478.632 132.796 480 131.524C481.368 130.228 482.508 128.884 483.42 127.492C484.332 126.1 484.788 124.732 484.788 123.388C484.788 122.164 484.5 121.204 483.924 120.508C483.348 119.812 482.46 119.464 481.26 119.464C480.06 119.464 479.136 119.872 478.488 120.688C477.84 121.48 477.504 122.572 477.48 123.964H472.584C472.68 121.084 473.532 118.9 475.14 117.412C476.772 115.924 478.836 115.18 481.332 115.18C484.068 115.18 486.168 115.912 487.632 117.376C489.096 118.816 489.828 120.724 489.828 123.1C489.828 124.972 489.324 126.76 488.316 128.464C487.308 130.168 486.156 131.656 484.86 132.928C483.564 134.176 481.872 135.688 479.784 137.464H490.404V141.64H472.62V137.896L474.492 136.312Z" fill="white"/>
<path d="M961.977 117.893C967.541 147.739 949.663 175.93 926.211 188.683C894.802 205.766 852.897 195.639 833.783 166.494C821.099 147.155 819.26 121.065 830.106 100.014C846.088 68.9719 885.211 57.4443 915.832 67.5905C918.001 68.3104 955.159 81.3263 961.987 117.903L961.977 117.893Z" fill="#E30000"/>
<path d="M943.821 71.2523C955.623 80.2929 967.989 94.2955 972.126 114.806L972.327 115.892C978.705 150.368 958.2 183.062 931.183 197.867L931.87 199.121L931.183 197.867C895.057 217.666 846.839 205.898 824.889 172.171L824.889 172.171C810.314 149.779 808.207 119.553 820.66 95.1951L820.66 95.1948C838.989 59.3199 883.983 45.8786 919.271 57.6612C920.457 58.0579 931.803 62.0468 943.821 71.2523Z" stroke="#E30000" stroke-opacity="0.47" stroke-width="3"/>
<path d="M882.06 40.606L882.06 40.6061C881.736 41.6287 881.662 42.916 882.004 43.7429L882.06 40.606ZM882.06 40.606C882.464 39.3311 883.375 38.1189 884.379 37.7309L882.06 40.606ZM888.982 43.7477C889.686 43.2372 890.104 42.676 890.201 42.1138C890.311 41.4808 890.079 40.7175 889.479 39.9684C888.856 39.1928 887.974 38.4422 887.026 37.99C886.078 37.5377 885.166 37.4269 884.379 37.7308L888.982 43.7477ZM888.982 43.7477C888.289 44.2493 887.439 44.6118 886.74 44.8046L888.982 43.7477ZM886.74 44.8046C885.937 45.0259 884.833 45.1369 883.867 44.9651C882.898 44.7926 882.269 44.3831 882.004 43.7431L886.74 44.8046Z" stroke="#E30000" stroke-width="2"/>
<path d="M880.98 122.668C881.1 120.268 881.94 118.42 883.5 117.124C885.084 115.804 887.16 115.144 889.728 115.144C891.48 115.144 892.98 115.456 894.228 116.08C895.476 116.68 896.412 117.508 897.036 118.564C897.684 119.596 898.008 120.772 898.008 122.092C898.008 123.604 897.612 124.888 896.82 125.944C896.052 126.976 895.128 127.672 894.048 128.032V128.176C895.44 128.608 896.52 129.376 897.288 130.48C898.08 131.584 898.476 133 898.476 134.728C898.476 136.168 898.14 137.452 897.468 138.58C896.82 139.708 895.848 140.596 894.552 141.244C893.28 141.868 891.744 142.18 889.944 142.18C887.232 142.18 885.024 141.496 883.32 140.128C881.616 138.76 880.716 136.744 880.62 134.08H885.516C885.564 135.256 885.96 136.204 886.704 136.924C887.472 137.62 888.516 137.968 889.836 137.968C891.06 137.968 891.996 137.632 892.644 136.96C893.316 136.264 893.652 135.376 893.652 134.296C893.652 132.856 893.196 131.824 892.284 131.2C891.372 130.576 889.956 130.264 888.036 130.264H886.992V126.124H888.036C891.444 126.124 893.148 124.984 893.148 122.704C893.148 121.672 892.836 120.868 892.212 120.292C891.612 119.716 890.736 119.428 889.584 119.428C888.456 119.428 887.58 119.74 886.956 120.364C886.356 120.964 886.008 121.732 885.912 122.668H880.98Z" fill="white"/>
<path d="M961.747 188.299L963.514 194.098C963.739 194.834 963.082 195.537 962.332 195.363L956.426 193.994C955.676 193.821 955.396 192.9 955.921 192.338L960.06 187.908C960.585 187.345 961.523 187.563 961.747 188.299Z" stroke="#E30000" stroke-width="2"/>
<line x1="943.827" y1="12.9537" x2="929.954" y2="47.1735" stroke="#E30000" stroke-width="3" stroke-linecap="round"/>
<line x1="971.061" y1="50.1205" x2="956.12" y2="65.9394" stroke="#E30000" stroke-width="3" stroke-linecap="round"/>
<line x1="836.132" y1="203.117" x2="823.117" y2="217.868" stroke="#E30000" stroke-width="3" stroke-linecap="round"/>
<line x1="846.558" y1="210.047" x2="840.047" y2="221.442" stroke="#E30000" stroke-width="3" stroke-linecap="round"/>
<line x1="980.363" y1="2.08995" x2="944.09" y2="53.6365" stroke="#E30000" stroke-width="3" stroke-linecap="round"/>
</svg>
